<svg xmlns="http://www.w3.org/2000/svg" width="100" height="100" fill="none"><path fill="#000" d="M49.625 13.063C41.781 22.015 37.68 36.843 38.187 51.5H61c.703-14.953-3.406-29.719-11.375-38.438ZM0 32.063C.773 39.57 2.336 45.64 4.875 51.5h27.75C25.305 40.5 14.273 34.602 0 32.062Zm100 .062C85.492 34.328 74.297 40.531 66.5 51.5h28.25c2.656-5.781 4.344-12.04 5.25-19.375Zm-93 25c.758 1.648 2 3.71 3.063 5.188l79.312-.063c1.156-1.617 2.195-3.281 3-5.125H7Zm6.75 10.438c1.64 2.171 3.016 3.054 5.063 4.687H80.25c1.719-1.344 3.523-2.93 5.125-4.688H13.75Zm11.625 9c5.242 3.242 11.39 5.367 18.375 6.812l-.813-6.813H25.375Zm19.25 0c1.352 2.812 3.094 5.171 5.063 7.437 1.937-2.305 3.195-4.664 4.562-7.438h-9.625Zm11.688 0L55.25 83c7.016-1.29 13.195-3.328 18.563-6.438h-17.5Z"/></svg>