<svg xmlns="http://www.w3.org/2000/svg" width="100" height="100" fill="none"><g clip-path="url(#a)"><path fill="#fff" d="M66.75 0c-5.672.383-11.742 3.758-15.5 8.312-3.29 4.008-6.047 9.891-5 16-.938-.289-1.79-.32-2.813-.687-2.789-.992-5.976-2.063-9.937-2.063-7.867 0-15.922 4.68-21 12.5-7.39 11.36-5.906 31.352 5.313 48.438 1.976 3 4.28 6.273 7.125 8.875C27.78 93.976 31.218 95.96 35.25 96c3.445.039 5.844-1.11 8-2.063 2.156-.953 4.164-1.796 7.938-1.812h.062c3.758-.031 5.703.797 7.813 1.75C61.172 94.828 63.547 96.03 67 96c4.11-.031 7.602-2.281 10.5-5.063 2.898-2.78 5.281-6.195 7.25-9.187 2.82-4.297 3.953-6.64 6.125-11.438.227-.5.234-1.078.016-1.586a2.002 2.002 0 0 0-1.141-1.101C82.64 64.937 78.586 58.648 78 52c-.586-6.649 2.227-13.492 9.313-17.375a2.01 2.01 0 0 0 1.015-1.352 2.013 2.013 0 0 0-.39-1.648c-5.086-6.32-12.243-10.063-19.25-10.063-4.47 0-7.75 1.055-10.438 2.063-.445.172-.773.156-1.188.312 2.727-1.437 5.133-3.43 6.938-5.75 3.281-4.21 5.813-10.203 4.875-16.5A1.997 1.997 0 0 0 66.75 0Z"/></g><defs><clipPath id="a"><path fill="#fff" d="M0 0h100v100H0z"/></clipPath></defs></svg>