<svg xmlns="http://www.w3.org/2000/svg" width="288" height="288"><svg xmlns="http://www.w3.org/2000/svg" width="288" height="288" fill="none" viewBox="0 0 18 20"><circle cx="8.55" cy="10.45" r="8.05" stroke="#404040" class="colorStrokefff svgStroke"/><path fill="#404040" d="M8.788 16.096a6.404 6.404 0 0 1-2.336-.416 5.623 5.623 0 0 1-1.856-1.2 5.609 5.609 0 0 1-1.232-1.808 5.865 5.865 0 0 1-.432-2.272c0-.821.144-1.579.432-2.272A5.609 5.609 0 0 1 4.596 6.32a5.594 5.594 0 0 1 1.872-1.184 6.192 6.192 0 0 1 2.336-.432c.81 0 1.573.139 2.288.416A4.522 4.522 0 0 1 12.9 6.336l-.752.752a4.076 4.076 0 0 0-1.52-1.008 4.95 4.95 0 0 0-1.792-.32c-.672 0-1.296.117-1.872.352a4.31 4.31 0 0 0-1.504.976A4.578 4.578 0 0 0 4.452 8.56 4.676 4.676 0 0 0 4.1 10.4c0 .672.117 1.29.352 1.856a4.822 4.822 0 0 0 1.008 1.472c.427.416.928.741 1.504.976a5.12 5.12 0 0 0 1.872.336 4.95 4.95 0 0 0 1.792-.32 4.257 4.257 0 0 0 1.52-1.024l.752.752a4.669 4.669 0 0 1-1.808 1.232 6.314 6.314 0 0 1-2.304.416Z" class="colorfff svgShape"/></svg></svg>