<svg xmlns="http://www.w3.org/2000/svg" width="88" height="91" fill="none"><path fill="#fff" d="M42.742.125a41.28 41.28 0 0 0-9.402 1.137c-8.26 1.94-15.858 6.54-21.578 12.86C6.002 20.421 2.08 28.417.66 36.897-.74 45.358.04 54.26 3.34 62.34 4.82 66.06 7.56 69.8 10 73V63s-1.74-1.618-2.18-2.578C4.56 53.362 3.278 45.3 4.398 37.48 5.458 29.66 8.82 22.14 14 16.12c5.18-6.04 12.179-10.523 19.879-12.723 1.94-.54 3.922-.939 5.902-1.199 2-.22 3.999-.378 6.059-.398C49.9 1.8 53.98 2 58 3 54.24 1.26 50.019.478 45.879.238a38.935 38.935 0 0 0-3.137-.113ZM47.613 5c-3.275.032-6.691.506-10.11 1.402-9.605 2.504-17.242 8.73-19.468 17.293-.198.788.496 1.512 1.25 1.25 8.412-2.746 36.318-11.513 45.746-11.797.876-.02 1.294-1.088.676-1.714C61.346 7.004 54.819 4.93 47.613 5Zm1.164 1.23c.763.003 1.527.03 2.293.09 1.532.122 3.062.328 4.614.852.756.242 1.534.585 2.25 1.11.358.261.713.564 1.03.948.16.162.28.403.38.625.118.304.217.752.097 1.196-.298.93-.953 1.133-1.351 1.293-.458.142-.878.199-1.274.199-.816.04-1.589-.038-2.363-.18a16.413 16.413 0 0 0 2.125-.808c.856-.202.86-2.224-1.469-3.012-2.744-.908-5.629-1.918-8.613-2.242.756-.05 1.518-.073 2.281-.07Zm-18.195 4.11c-1.688 1.376-3.162 2.974-4.336 4.75a19.188 19.188 0 0 0-1.57 2.785c-.458.93-.855 1.963-1.113 2.89v.04c-.14.526-.697.849-1.235.707-.518-.142-.835-.709-.695-1.235.02-.06.038-.12.058-.16.478-1.132 1.056-2.062 1.692-3.012.636-.93 1.33-1.816 2.086-2.644a21.83 21.83 0 0 1 5.113-4.121Zm42.887 5.219c-.448.012-.742.062-.742.062-2.829.48-4.727.84-4.727.84v14.48l2.203-.421c.892-.18 1.555-1.001 1.555-1.961v-3.54l3.281 3.962c.38.46.91.699 1.441.699.474 0 .95-.179 1.313-.559.74-.74.795-1.981.113-2.781l-2.465-2.961s2.616-1.518 2.332-4.758c-.241-2.82-2.96-3.1-4.304-3.062Zm-7.606 1.09L58 18.37V33.02l6.578-1.63C65.41 31.186 66 30.376 66 29.442V27.79l-4.36 1.02v-2.84l2.45-.547c.886-.198 1.503-1.076 1.453-2.067l-.063-1.28-3.87.921v-2.2l2.82-.675c.838-.202 1.433-1.013 1.433-1.953v-1.52Zm6.95 2.035c.564.06 1.128.335 1.128 1.195 0 2.08-2.258 2.82-2.258 2.82v-3.918s.565-.157 1.13-.097Zm-19.446.75c-2.034 0-6.77 1.113-7.328 8.335-.484 6.253 3.547 7.552 5.613 7.36.668-.062 1.429-.24 2.153-.45 1.69-.493 2.875-2.259 2.875-4.285v-5.519l-5.172 1.34-.012 1.863c0 .734.616 1.116 1.184.988l.746-.168v1.754s-.277.922-1.473.922c-1.196 0-2.23-.932-2.23-3.562s1.662-4.774 3.324-4.774 3.562.565 3.562-1.441c0-2.006-1.208-2.363-3.242-2.363Zm-12.855 3.714a7.952 7.952 0 0 0-2.032.274c-1.014.28-4.48 1.5-4.48 1.5V40l2.508-.941c.72-.28 1.216-1 1.234-1.84l.113-4.098 3.208 3.559c.811.88 2.122.842 2.878-.078.332-.4.5-.922.5-1.442a2.21 2.21 0 0 0-.609-1.539l-2.363-2.383s2.788-1.997 2.343-5.437c-.264-2.138-1.876-2.643-3.3-2.653Zm-10.457 2.825c-.146.01-.29.038-.438.09l-1.285.449.082 11.12c.006.747-.482 1.389-1.156 1.513h-.012c-.858.157-1.637-.578-1.617-1.532l.152-7.418c0-1.382-1.25-2.35-2.437-1.886l-1.34.52v10.108s-.245 5.062 4.883 3.786c5.128-1.276 5.071-5.522 5.101-7.914.018-1.428.014-4.554.008-6.848-.003-1.183-.924-2.062-1.941-1.988Zm8.707.386c.818-.078 1.166.325 1.18 1.18-.02 2.24-2.16 3.242-2.16 3.242v-4.18c.382-.134.707-.215.98-.242Zm-22.227 4.403a5.692 5.692 0 0 0-1.937.34L10 33v16s10.342-2.801 9.992-8.281c-.204-2.82-2.476-2.938-2.476-2.938S19.88 35.84 19.363 33c-.346-1.725-1.61-2.224-2.828-2.238ZM75.441 31c-.427.003-.695.027-.695.027-4.722 0-12.166 3.477-12.57 11.13-.478 9.083 3.635 11.994 9.933 11.546 6.298-.448 9.196-4.176 9.196-6.926V38.75l-9.336 2.125v2.137a2.001 2.001 0 0 0 2.425 1.957l.957-.207.016 1.968s-.387 1.149-2.96 1.329c-2.575.178-4.04-2.225-3.805-5.403 1-7.59 7.7-5.82 9.742-5.586 2.042.236 4.277-2.517 2.469-4.457-1.356-1.455-4.09-1.621-5.372-1.613ZM14.59 34.11c.5-.026 1.018.17 1.082 1.05.148 2.1-2.07 2.68-2.07 2.68v-3.461s.487-.245.988-.27Zm45.41.37-2.992.864c-1.648.476-2.79 2.057-2.79 3.86v7.116l-5.16-6.5c-.957-1.206-2.497-1.707-3.933-1.28L42 39.468v22.195l3.227-1.102c1.562-.535 2.62-2.07 2.62-3.804v-8.356l6.426 7.856c.486.594 1.19.933 1.934.933h.004c2.092 0 3.789-1.79 3.789-4v-18.71Zm-45.246 5.516c.584-.03 1.186.184 1.25 1.164.184 2.38-2.403 3.04-2.403 3.04v-3.9s.569-.274 1.153-.304ZM40 40l-3.707 1.512c-1.374.56-2.293 2.075-2.293 3.777v19.5l3.7-1.496c1.377-.556 2.3-2.075 2.3-3.781V40Zm-11.594 4.023a3.049 3.049 0 0 0-2.699 1.496l-5.688 9.63V47.32l-6.742 2.871v22.024l4.2-1.727a4 4 0 0 0 2.48-3.699v-6.746l5.52 5.738a3.542 3.542 0 0 0 5.054.051l.004-.008a3.534 3.534 0 0 0 .02-4.984l-4.516-4.582 4.852-7.543a3.038 3.038 0 0 0-1.407-4.457l-.011-.008a3.019 3.019 0 0 0-1.067-.227ZM73.281 57.07a1.033 1.033 0 0 0-.539.02c-10.614 3.248-35.888 11.27-44.164 13.746-.822.248-1.212 1.14-.582 1.738 6.484 6.146 17.216 7.123 27.774 3.79 9.271-2.915 16.457-9.447 18.253-18.079.12-.595-.24-1.097-.742-1.215ZM78 59c-2.5 6.84-6.842 12.56-12.762 17-5.92 4.46-13.238 7.06-20.758 7.32C36.96 83.66 24 79 18 75l-6 2c2.06 2.18 5.04 3.92 7.5 5.64 7.24 5.08 16.098 7.94 25.078 8 8.96.14 18.022-2.6 25.582-7.62C77.74 78 84.34 71.44 88 63l-10-4Zm-8.469 1.637a.98.98 0 0 1 .395.008c.512.117.844.669.73 1.199a1.25 1.25 0 0 1-.05.164c-.417 1.148-.936 2.096-1.516 3.07a24.29 24.29 0 0 1-1.926 2.73 21.389 21.389 0 0 1-4.809 4.329 20.977 20.977 0 0 0 4.024-4.922 19.406 19.406 0 0 0 1.414-2.844c.406-.946.749-1.992.96-2.93l-.003-.039a.992.992 0 0 1 .781-.765Z"/></svg>