<svg xmlns="http://www.w3.org/2000/svg" width="100" height="100" fill="none"><path fill="#ED1C2E" d="m79.377 46.47 9.108-1.89v5.758c0 3.33-.277 5.727-7.35 7.472-7.073 1.746-12.141-3.587-11.387-9.541.754-5.954 4.314-8.684 7.064-9.686l2.309-.733s4.814-1.12 8.335.652c2.527 1.27.334 5.396-2.791 4.31 0 0-8.323-1.854-8.544 5.459-.2 6.575 5.752 4.868 6.55 3.535V50.04l-1.63.257c-.88.108-1.606-.571-1.618-1.33l-.046-2.495ZM50 45.25v20.198l3.323-1.119c1.65-.556 2.75-2.019 2.75-3.656v-7.49l6.669 7.254c1.014 1.105 2.75 1.336 4.056.538 1.177-.719 1.885-1.942 1.885-3.252V40.619l-2.99.795c-1.789.478-3.022 2.003-3.022 3.738v6.217l-5.198-5.821c-1.092-1.223-2.875-1.702-4.498-1.206L50 45.25ZM48.006 45.519v17.718c0 1.638-1.1 3.1-2.75 3.657l-4.118 1.387V50.562c0-1.637 1.1-3.1 2.75-3.656l4.118-1.387ZM38.994 64.577l-4.363-4.09 4.654-6.966c.86-1.288.436-2.983-.947-3.783l-.015-.009c-1.394-.804-3.223-.391-4.065.92l-5.646 8.772v-6.998l-5.718 2.206.077 20.048 3.056-1.169c1.565-.597 2.585-2.018 2.585-3.595V63.74l5.374 5.348c1.318 1.31 3.527 1.375 4.927.14l.002-.003c1.425-1.254 1.458-3.354.079-4.648ZM85.208 30.773l-2.587-2.723s2.735-1.4 2.42-4.006c-.312-2.585-2.358-3.571-5.426-3.098L75 21.698v13.377l2.15-.415c.981-.197 1.67-1.006 1.67-1.933v-3.156l3.34 3.71c.396.434.96.671 1.523.671.5 0 .982-.177 1.357-.493.835-.711.897-1.915.168-2.686Zm-6.452-3.333v-3.61c1.692-.336 2.296.216 2.296 1.085.002 1.873-2.296 2.525-2.296 2.525ZM65.448 23.498V37.12l7.006-1.554c.942-.209 1.609-1.005 1.609-1.921v-1.523l-4.692.99V30.51l2.527-.493c.969-.19 1.663-.996 1.663-1.934V26.88l-4.19.86V25.7l2.865-.537c.974-.183 1.677-.993 1.677-1.935V21.86l-8.465 1.638ZM58.6 30.74l5.852-1.238v5.456c0 1.198-1.064 3.15-4.677 3.8-3.612.65-7.712-.797-7.358-6.654.354-5.856 5.141-7.625 8-7.704.975-.027 2.281.052 3.235.63 1.498.905.771 3.233-1.041 3.085-2.061-.17-5.409-.63-5.984 4.114-.11 1.617.334 3.398 2.394 3.398 1.262 0 1.816-.775 1.816-.775v-1.7c-1.435.415-2.254.242-2.254-1.04l.017-1.372ZM51.469 37.64l-2.425-2.309s2.385-1.598 2.385-4.519c0-2.9-3.062-3.372-5.408-2.722l-4.354 1.323V43.42l2.366-.809a1.977 1.977 0 0 0 1.334-1.854v-3.69l3.34 3.376c.756.768 2.008.768 2.783.018v-.018a1.928 1.928 0 0 0-.021-2.804Zm-6.144-2.684V31.05s2.206-.848 2.206.948c.002 2.11-2.206 2.958-2.206 2.958ZM29.815 33.18v9.024c0 2.371 1.108 4.073 3.945 4.073 2.838 0 6.671-1.91 6.671-6.675V32.49c0-1.35-1.402-2.302-2.752-1.87l-1.17.376v9.923c0 .8-.357 1.52-1.365 1.735-1.008.215-1.402-.566-1.406-1.481l-.03-6.533c-.006-1.371-1.452-2.32-2.808-1.842l-1.085.381ZM26.644 41.469l.569-.553c.872-.847 1.36-1.993 1.34-3.177-.022-1.716-1.461-2.979-3.086-2.979-.365 0-.732.059-1.096.198l-5.642 2.11v15.015l6.777-2.881c2.213-.927 3.775-2.94 3.652-5.208-.1-2.034-2.514-2.525-2.514-2.525Zm-4.038-3.12s2.05-.868 2.152.672c.142 1.893-2.152 2.427-2.152 2.427V38.35Zm0 9.018v-3.571s2.313-.988 2.436.768c.141 2.192-2.436 2.803-2.436 2.803Z"/><path fill="#FEBE10" d="M72.812 17.25c-2.583-5.146-11.875-8.812-26.229-4.708-15.416 4.417-19.5 13.479-19.5 17.667 0 .354.188.687.5.895.167.105.354.146.542.146.167 0 .312-.041.458-.104 8.125-4.063 32.646-10.25 43.5-12.417.313-.062.584-.27.73-.562a1.015 1.015 0 0 0 0-.917Zm-37.687 4.354a20.937 20.937 0 0 0-1.854 4.771v.021c-.125.563-.709.896-1.271.77a1.037 1.037 0 0 1-.75-1.27c0-.063.02-.125.062-.188.396-.895.855-1.666 1.334-2.458.5-.77 1.041-1.52 1.625-2.229 1.187-1.396 2.604-2.646 4.27-3.313-1.5.98-2.583 2.396-3.416 3.896Zm27.417-2.875c.27-.333 1.875-2.229-.042-4.145-2.083-2.084-6.25-2.084-6.25-2.084s8.333 0 10.417 2.084c1.979 1.979-3.521 3.937-4.125 4.145ZM80.75 60.938a1.032 1.032 0 0 0-.542-.167c-.166 0-.312.083-.458.125-8.917 1.604-36 9.938-43.5 12.396-.313.104-.583.27-.73.562a1.059 1.059 0 0 0 0 .938c2.584 5.125 11.876 8.791 26.23 4.687C77.167 75.084 81.25 66 81.25 61.813c0-.355-.188-.688-.5-.875Zm-3.667 4.875c-.02.041-.041.104-.062.145-.604 1.334-1.334 2.355-2.167 3.396a21.452 21.452 0 0 1-2.73 2.771c-1 .813-2.02 1.563-3.124 2.209-1.083.666-2.23 1.208-3.375 1.708 1.062-.667 2.125-1.354 3.083-2.125.98-.771 1.854-1.646 2.688-2.542a20.894 20.894 0 0 0 2.187-2.916c.625-1.021 1.188-2.167 1.48-3.167v-.063c.166-.541.75-.875 1.312-.708.542.167.875.73.708 1.292Z"/><path fill="#0061A9" d="M16.125 63.312a37.677 37.677 0 0 0 3.917 6.771v8.667a43.797 43.797 0 0 1-8.604-13.438c-3.209-7.791-4.042-16.437-2.542-24.625 1.52-8.187 5.458-15.854 11.146-21.791 5.687-5.917 13.041-10.167 20.937-12 7.834-1.792 16.23-1.563 23.604 1.437-3.791-1.187-7.729-1.77-11.645-1.646A41.474 41.474 0 0 0 41.396 8.5c-7.417 2.27-14.104 6.666-19.042 12.5-4.979 5.77-8.229 12.937-9.27 20.396-1.084 7.437-.042 15.145 3.041 21.916ZM93.354 68.438c-3.791 7.875-10.083 14.541-17.666 18.77-7.584 4.271-16.292 6.084-24.771 5.75-8.563-.333-16.98-3.187-23.896-8.104a43.858 43.858 0 0 1-6.354-5.416l5.812-2.396a34.717 34.717 0 0 0 3.875 2.896c6.167 4.02 13.459 6.187 20.73 6.208 7.354.02 14.645-1.833 20.77-5.542C78 76.938 82.917 71.396 85.813 64.896l7.541 3.542Z"/></svg>