<svg xmlns="http://www.w3.org/2000/svg" width="100" height="100" fill="none"><path fill="#FF0505" d="M47.396 44.494h3.008l1.7-2.827h-3.01l-1.698 2.827ZM30.729 60.417c-2.558 0-5.744.27-9.375 1.302-5.47 1.554-8.854 2.892-11.719 2.892-1.302 0-2.333-.41-3.529-1.253-1.419-1.118-2.02-3.32-1.94-5.806.015-.475.055-.958.117-1.446.907-4.964 3.588-9.741 7.94-15.04 2.429-2.755 4.683-5.122 7.66-6.07 2.282-.596 2.017.82 1.742 1.083-1.573 0-2.308 1.323-2.354 2.375-.032.794.352 1.13.835 1.13 1.508 0 2.81-2.084 2.81-3.646 0-.521 0-2.605-2.604-2.605-2.543 0-4.918 1.263-7.123 2.64-5.12 3.623-9.218 8.642-11.537 14.138C.315 53.425-.894 58.175.919 62.04c1.279 2.448 3.768 4.627 7.414 4.627 3.906 0 6.092-1.08 8.073-1.563 1.982-.485 11.513-4.612 14.844 1.563 0 0 1.302-2.084 4.688-2.084 1.822 0 5.42.296 7.812 2.084-.796-1.219-4.688-6.25-13.02-6.25ZM62.5 53.129c0-2.668-1.304-3.12-2.183-3.12-2.377 0-4.844 2.191-6.127 5.272-.675 1.584-1.065 3.321-1.325 5.144.777-.935 2.406-2.644 4.206-3.483 0 0 .14-1.421 1.39-3.196.418-.652 1.212-1.658 2.129-1.654.116 0 .233.017.352.052.383.133.57.637.57 1.367 0 1.033-.374 2.14-1.098 3.66-.912 1.908-2.695 3.82-4.108 5.138-.929.822-2.19 1.78-3.44 1.78C50.522 64.089 50 62.24 50 59.897c0-3.385 2.75-8.744 5.756-13.419 2.221-3.11 4.473-6.279 7.265-8.7 1.104-.958 3.385-2.946 5.208-2.946.317 0 .617.05.902.159-2.029 1.273-6.631 4.614-6.631 8.76 0 1.575 1.23 2.084 1.823 2.084 2.592 0 6.51-3.74 6.51-9.376v-.88s.26-.153 1.042-.153c1.302 0 2.881.654 2.881.654 1.665.575 4.817 2.671 6.55 3.646.8-.933 1.615-1.837 2.452-2.694a230.297 230.297 0 0 0-4.591-2.395c-1.834-.917-3.613-1.296-4.948-1.296-2.604 0-3.994 1.048-3.994 1.048-.602-.686-1.425-1.048-2.256-1.048-2.344 0-4.263 1.175-5.469 1.846-3.25 1.808-6.154 4.735-9.483 8.972-3.357 4.553-5.44 8.482-6.548 12.365a12.821 12.821 0 0 0-.634 3.981c.013 1.75.45 3.494 1.607 4.759.929 1.014 2.016 1.38 3.08 1.402.97.018 1.92-.25 2.711-.582 3.602-1.85 7.225-5.843 8.838-10.43.214-.763.429-1.642.429-2.524Zm7.292-16.67c0 5.087-3.592 8.333-5.467 8.333-.008 0-.783-.059-.783-1.042 0-3.654 4.429-6.802 6.25-7.941v.65Zm25.53.127c-1.422.843-2.893 1.458-4.48 1.762a57.638 57.638 0 0 0-1.35 1.225 27.366 27.366 0 0 0-1.763 2.081c3.306-.056 6.515-1.968 8.463-3.816 2.516-2.284 3.808-4.505 3.808-4.505s-1.888 1.6-4.677 3.253Z"/><path fill="#FF0505" d="M88.223 60.677C88.758 59.696 93.75 50 93.75 50h-3.2c-.027.046-.298.558-.55 1.04 0 0-.27-1.038-1.66-1.038-.607 0-1.257.185-1.76.483-3.44 2.1-5.749 6.065-7.73 9.298 0 0-2.29 3.758-3.331 3.758-.52 0-.52-.564-.52-1.041 0-1.563 1-4.513 1.818-6.354a44.738 44.738 0 0 0 5.28-4.502c3.078-3.07 6.205-6.446 7.484-8.084-.392.069-.806.09-1.214.119-3.657 4.183-8.877 9.519-10.553 10.369.792-1.986 5.9-11.459 10.248-15.99 0 0 3.605-3.42 4.415-3.431.09-.01.37.02.37.29 0 .185-.032.397-.08.62.318-.135.641-.308.964-.479.004-.054.017-.106.019-.16a3.606 3.606 0 0 0-.042-.673c-.07-.44-.375-.773-.773-.85a2.243 2.243 0 0 0-.408-.042c-1.18-.01-2.38.869-3.398 1.596l-.046.03c-5.846 4.778-11.546 12.047-15.862 21.453-.275.219-1.207.454-1.575.417.416-.896.925-2.065 1.183-3.342.044-.379.088-.764.088-1.141 0-.813-.188-1.575-.89-2.102A2.348 2.348 0 0 0 70.944 50a3.511 3.511 0 0 0-1.442.337c-3.07 1.321-5.365 4.584-7.02 7.271-.89 1.706-1.78 3.536-2.026 5.63a6.861 6.861 0 0 0-.04.6c-.033 1.301.336 2.164 1.12 2.624.924.49 2.089-.019 2.547-.264 3.11-1.698 5.284-5.102 6.996-8.213l.056-.112c.307-.02.992-.067 1.552-.22.01 0-1.856 3.286-1.856 6.15 0 .861.142 1.56.56 2.105.415.533.934.767 1.509.76 1.47-.014 3.314-1.558 4.74-3.422-.365 2.662.714 3.414 1.77 3.422.177.003.357-.029.525-.064 1.352-.381 2.86-1.89 3.559-2.663-.063.263-.16.832-.16 1.163 0 .781.52 1.558 1.562 1.558 1.302 0 2.962-1.446 3.385-1.819 2.29-2.027 4.781-5.3 5.469-6.51h-1.067c-.496.781-2.45 3.202-3.881 4.39-.394.329-.885.818-1.302.818-.242 0-.44-.26-.319-.637.186-.59.617-1.45 1.042-2.227Zm-23.804 2.408c-.167-.254-.221-.533-.225-.833-.032-1.848 1.887-5.16 3.241-6.965.57 1.288 1.857 2.117 2.632 2.467-.963 2.225-4.27 6.992-5.648 5.331Zm6.191-6.327c-.091.067-1.712-.5-2.027-2.056-.266-1.34.625-2.386 1.486-2.915.368-.302.927-.406 1.335-.254.38.265.481.736.481 1.244 0 .312-.04.631-.075.925l-.008.067a12.653 12.653 0 0 1-1.192 2.99Zm15.43 1.898c-.626 1.083-1.284 2.152-2.01 3.163-.153.21-.613.818-.849 1.029-.331.298-.837.629-1.364.51-.159-.035-.257-.267-.284-.43-.025-1.172.481-2.26.973-3.32l.125-.277c1.413-2.463 2.852-5.18 5.265-7.192.406-.306.848-.562 1.312-.362a.77.77 0 0 1 .207.381l-3.376 6.498Zm-45.155-4.267c-.393.33-.885.82-1.302.82-.241 0-.44-.261-.319-.638.186-.59.617-1.45 1.042-2.227.536-.982 5.527-10.678 5.527-10.678h-3.2c-.027.046-.298.559-.55 1.04 0 0-.27-1.038-1.66-1.038-.606 0-1.256.186-1.76.484-3.44 2.1-5.748 6.064-7.73 9.298 0 0-.298.485-.727 1.106-.629.869-1.427 1.652-1.94 2.133 0 0-2.435 2.31-3.483.609-.383-.715-.264-1.76-.05-2.446 1.221-3.658 3.148-6.98 5.54-8.983.675-.555 1.408-.715 1.773-.48.348.217.302.877.083 1.244-.556-.019-1.004.16-1.367.554-.525.582-.816 1.146-.816 1.688 0 .894.418 1.041.785 1.041 1.113 0 2.598-2.479 2.594-4.197.004-.75-.4-1.392-.94-1.721-.398-.25-.898-.33-1.4-.33-1.079 0-2.154.736-2.552 1.04-.852.65-1.764 1.583-2.435 2.365-.754.877-1.838 1.814-2.721 2.37a3.468 3.468 0 0 1-1.306.473s.946-1.822.946-3.906c0-1.041-.196-1.529-.815-2.004-1.85-1.28-5.569 1.167-8.548 5.36-2.723 3.763-3.9 8.136-2.62 10.157 1.903 2.379 5.439-1.082 6.94-2.934l.195-.216c1.023-1.157 1.812-2.548 2.577-3.886l.735-1.279a4.843 4.843 0 0 0 1.546-.396c-.006.032-2.094 3.532-2.094 6.136 0 .606.088 2.652 2.127 3.318 2.596.459 4.904-1.235 6.765-3.356-.365 2.663.714 3.415 1.77 3.423.178.002.357-.03.526-.064 1.352-.382 2.86-1.89 3.558-2.663-.065.265-.162.833-.162 1.165 0 .78.52 1.558 1.562 1.558 1.302 0 2.963-1.446 3.386-1.819 2.29-2.027 4.78-5.3 5.468-6.51h-1.066c-.496.781-2.453 3.202-3.882 4.39ZM18.81 51.656c-.808 1.138-1.818 2.569-3.083 3.254-.375.131-.892.217-1.156-.131-.559-.706-.271-1.683-.038-2.473l.084-.281c.3-.854.677-1.665 1.093-2.44.521-.962 1.52-2.519 1.732-2.762.002.01.006.01.008.029.65 1.317 1.87 1.927 2.781 2.21.006 0 .048.013.048.013.002.025-1.469 2.581-1.469 2.581Zm2.08-3.74c-1.098 0-2.125-.85-2.32-1.545-.266-1.355.832-2.417 1.315-2.803.29-.212.682-.358 1.036-.358.816 0 .927.865.927 1.375-.002 1.425-.723 2.913-.958 3.331Zm15.222 5.567c-.152.21-.612.819-.848 1.03-.33.297-.837.628-1.364.51-.158-.036-.256-.267-.283-.43-.025-1.172.48-2.26.973-3.32l.124-.277c1.413-2.463 2.853-5.18 5.265-7.192.406-.306.848-.563 1.313-.363a.77.77 0 0 1 .206.382c-1.196 2.295-2.954 5.683-3.377 6.495a35.954 35.954 0 0 1-2.009 3.165Z"/></svg>