<svg xmlns="http://www.w3.org/2000/svg" width="100" height="100" fill="none"><path fill="#fff" d="M47.396 44.494h3.008l1.7-2.827h-3.01l-1.698 2.827ZM30.729 60.417c-2.558 0-5.744.27-9.375 1.302-5.47 1.554-8.854 2.891-11.719 2.891-1.302 0-2.333-.41-3.529-1.252-1.418-1.118-2.02-3.32-1.94-5.806.015-.475.055-.958.117-1.446.907-4.964 3.588-9.741 7.94-15.04 2.43-2.756 4.683-5.122 7.66-6.07 2.282-.596 2.017.82 1.742 1.083-1.573 0-2.308 1.323-2.354 2.375-.031.794.352 1.13.835 1.13 1.509 0 2.81-2.084 2.81-3.647 0-.52 0-2.604-2.604-2.604-2.543 0-4.918 1.263-7.122 2.64-5.121 3.623-9.22 8.642-11.538 14.137C.315 53.425-.894 58.175.92 62.04c1.279 2.447 3.769 4.627 7.414 4.627 3.907 0 6.092-1.08 8.073-1.563 1.982-.485 11.513-4.612 14.844 1.563 0 0 1.302-2.084 4.688-2.084 1.822 0 5.42.296 7.812 2.084-.796-1.22-4.688-6.25-13.02-6.25ZM62.5 53.129c0-2.669-1.304-3.12-2.183-3.12-2.377 0-4.844 2.191-6.127 5.272-.675 1.584-1.065 3.321-1.325 5.144.777-.935 2.406-2.644 4.206-3.483 0 0 .14-1.421 1.39-3.196.418-.652 1.212-1.659 2.129-1.654.116 0 .233.016.352.052.383.133.57.637.57 1.366 0 1.034-.374 2.14-1.097 3.66-.913 1.91-2.696 3.822-4.109 5.138-.929.823-2.19 1.782-3.44 1.782C50.522 64.088 50 62.24 50 59.896c0-3.386 2.75-8.744 5.756-13.419 2.221-3.11 4.473-6.28 7.265-8.7 1.104-.958 3.385-2.946 5.208-2.946.317 0 .617.05.902.159-2.029 1.273-6.631 4.614-6.631 8.76 0 1.575 1.23 2.083 1.823 2.083 2.592 0 6.51-3.74 6.51-9.375v-.88s.26-.153 1.042-.153c1.302 0 2.881.654 2.881.654 1.665.575 4.817 2.671 6.55 3.646.8-.933 1.615-1.837 2.452-2.694a230.273 230.273 0 0 0-4.591-2.396c-1.834-.916-3.613-1.295-4.948-1.295-2.604 0-3.994 1.047-3.994 1.047-.602-.685-1.425-1.047-2.256-1.047-2.344 0-4.263 1.175-5.469 1.845-3.25 1.809-6.154 4.736-9.483 8.973-3.357 4.552-5.44 8.482-6.548 12.365a12.818 12.818 0 0 0-.634 3.981c.013 1.75.45 3.494 1.607 4.759.929 1.014 2.016 1.38 3.08 1.402.97.018 1.92-.25 2.711-.582 3.602-1.85 7.225-5.843 8.838-10.43.214-.763.429-1.643.429-2.524Zm7.292-16.67c0 5.087-3.592 8.333-5.467 8.333-.008 0-.783-.059-.783-1.042 0-3.654 4.429-6.802 6.25-7.942v.65Zm25.53.126c-1.422.844-2.893 1.459-4.48 1.763a57.398 57.398 0 0 0-1.35 1.225 27.343 27.343 0 0 0-1.763 2.081c3.306-.056 6.515-1.969 8.463-3.817 2.516-2.283 3.808-4.504 3.808-4.504s-1.888 1.6-4.677 3.252Z"/><path fill="#fff" d="M88.223 60.677C88.758 59.696 93.75 50 93.75 50h-3.2c-.027.046-.298.558-.55 1.04 0 0-.27-1.038-1.66-1.038-.607 0-1.257.185-1.76.483-3.44 2.1-5.749 6.065-7.73 9.298 0 0-2.29 3.759-3.331 3.759-.519 0-.519-.565-.519-1.042 0-1.563 1-4.513 1.817-6.354a44.728 44.728 0 0 0 5.28-4.502c3.078-3.069 6.205-6.446 7.484-8.084-.391.07-.806.09-1.214.12-3.657 4.182-8.877 9.518-10.552 10.368.791-1.986 5.9-11.458 10.248-15.99 0 0 3.604-3.42 4.414-3.43.09-.011.37.02.37.289 0 .185-.032.398-.08.62.318-.135.641-.308.964-.479.004-.054.017-.106.019-.16a3.623 3.623 0 0 0-.042-.673c-.07-.44-.375-.773-.773-.85a2.243 2.243 0 0 0-.408-.042c-1.18-.01-2.38.87-3.398 1.596l-.046.03c-5.846 4.778-11.546 12.047-15.862 21.453-.275.22-1.206.455-1.575.417.416-.896.925-2.064 1.183-3.342.044-.379.088-.764.088-1.141 0-.813-.188-1.575-.89-2.102A2.348 2.348 0 0 0 70.944 50a3.512 3.512 0 0 0-1.442.337c-3.07 1.321-5.364 4.584-7.02 7.271-.89 1.707-1.78 3.536-2.026 5.63a6.861 6.861 0 0 0-.04.6c-.033 1.302.336 2.164 1.12 2.625.924.49 2.089-.02 2.547-.265 3.11-1.698 5.284-5.102 6.996-8.213l.056-.112c.307-.019.992-.067 1.552-.219.01 0-1.856 3.286-1.856 6.15 0 .86.142 1.558.56 2.104.415.534.934.767 1.509.76 1.47-.014 3.314-1.558 4.74-3.422-.365 2.662.714 3.414 1.77 3.423.178.002.357-.03.525-.065 1.352-.381 2.86-1.89 3.559-2.662-.063.262-.16.83-.16 1.162 0 .781.52 1.558 1.562 1.558 1.302 0 2.962-1.445 3.385-1.818 2.29-2.027 4.781-5.3 5.469-6.51h-1.067c-.496.78-2.45 3.201-3.88 4.389-.395.33-.886.819-1.303.819-.242 0-.44-.26-.319-.638.186-.59.617-1.45 1.042-2.227Zm-23.804 2.408c-.167-.254-.221-.533-.225-.833-.032-1.848 1.887-5.16 3.241-6.965.57 1.288 1.857 2.117 2.632 2.467-.963 2.225-4.27 6.992-5.648 5.331Zm6.191-6.327c-.091.067-1.712-.5-2.027-2.056-.266-1.34.625-2.385 1.486-2.914.368-.303.927-.407 1.335-.255.38.265.481.736.481 1.244 0 .313-.04.631-.075.925l-.008.067a12.659 12.659 0 0 1-1.192 2.99Zm15.43 1.898c-.625 1.084-1.284 2.152-2.01 3.163-.153.21-.613.819-.849 1.029-.331.298-.837.63-1.364.51-.159-.035-.257-.266-.284-.429-.025-1.173.482-2.26.973-3.32l.125-.278c1.413-2.462 2.852-5.179 5.265-7.191.406-.307.848-.563 1.312-.363a.77.77 0 0 1 .207.381l-3.375 6.498ZM40.885 54.39c-.393.329-.885.818-1.302.818-.241 0-.44-.26-.318-.637.185-.59.616-1.45 1.041-2.227.536-.982 5.527-10.677 5.527-10.677h-3.2c-.027.045-.298.558-.55 1.04 0 0-.27-1.038-1.66-1.038-.606 0-1.256.185-1.76.483-3.44 2.1-5.748 6.065-7.73 9.298 0 0-.298.485-.727 1.106-.629.869-1.427 1.652-1.94 2.134 0 0-2.435 2.31-3.483.608-.383-.715-.264-1.76-.05-2.446 1.221-3.658 3.148-6.98 5.54-8.983.675-.554 1.408-.715 1.773-.48.348.217.302.878.083 1.244-.556-.018-1.004.16-1.366.554-.526.582-.817 1.146-.817 1.688 0 .894.419 1.042.785 1.042 1.113 0 2.598-2.48 2.594-4.198.004-.75-.4-1.392-.94-1.721-.397-.25-.897-.33-1.4-.33-1.079 0-2.154.736-2.552 1.04-.852.65-1.764 1.584-2.435 2.365-.754.877-1.838 1.815-2.72 2.37-.62.395-1.307.474-1.307.474s.946-1.823.946-3.907c0-1.041-.196-1.529-.815-2.004-1.85-1.279-5.569 1.167-8.548 5.36-2.723 3.763-3.9 8.136-2.62 10.157 1.904 2.38 5.439-1.081 6.941-2.933l.194-.217c1.023-1.156 1.812-2.548 2.577-3.886l.735-1.279a4.844 4.844 0 0 0 1.546-.395c-.006.03-2.094 3.53-2.094 6.135 0 .606.088 2.652 2.127 3.319 2.596.458 4.905-1.236 6.765-3.357-.365 2.663.715 3.415 1.77 3.423.178.002.357-.029.526-.064 1.352-.381 2.86-1.89 3.558-2.663-.064.265-.162.834-.162 1.165 0 .781.52 1.558 1.562 1.558 1.302 0 2.963-1.446 3.386-1.819 2.29-2.027 4.78-5.3 5.468-6.51h-1.066c-.496.781-2.452 3.202-3.882 4.39ZM18.81 51.656c-.808 1.138-1.818 2.569-3.083 3.254-.375.132-.892.217-1.156-.13-.559-.707-.271-1.684-.038-2.474l.084-.281c.3-.854.677-1.665 1.093-2.44.521-.962 1.52-2.518 1.732-2.762.002.01.006.01.008.03.65 1.316 1.87 1.926 2.781 2.21a.51.51 0 0 1 .048.012c.002.025-1.469 2.581-1.469 2.581Zm2.08-3.74c-1.098 0-2.125-.85-2.32-1.545-.266-1.354.832-2.417 1.315-2.802.29-.213.682-.359 1.036-.359.817 0 .927.865.927 1.375-.002 1.425-.723 2.913-.958 3.332Zm15.222 5.567c-.152.21-.612.82-.847 1.03-.332.297-.838.629-1.365.51-.158-.036-.256-.267-.283-.43-.025-1.172.48-2.26.973-3.32l.125-.277c1.412-2.463 2.852-5.18 5.264-7.192.406-.306.848-.562 1.313-.362a.77.77 0 0 1 .206.38c-1.196 2.297-2.954 5.684-3.377 6.497a35.928 35.928 0 0 1-2.009 3.164Z"/></svg>