<svg xmlns="http://www.w3.org/2000/svg" width="100" height="100" fill="none"><g clip-path="url(#a)"><rect width="99" height="99" x=".5" y=".5" stroke="#fff" rx="8.5"/><path stroke="#fff" stroke-linecap="round" stroke-linejoin="round" stroke-miterlimit="10" stroke-width="2" d="M50 62.5c6.904 0 12.5-5.596 12.5-12.5S56.904 37.5 50 37.5 37.5 43.096 37.5 50 43.096 62.5 50 62.5Z"/><path stroke="#fff" stroke-linecap="round" stroke-linejoin="round" stroke-miterlimit="10" stroke-width="2" d="M65.865 15.625h-31.73c-10.313 0-18.51 8.197-18.51 18.51v31.73c0 10.313 8.197 18.51 18.51 18.51h31.73c10.313 0 18.51-8.197 18.51-18.51v-31.73c0-10.313-8.197-18.51-18.51-18.51Z"/><path fill="#fff" d="M68.49 30.73a2.865 2.865 0 1 0 0-5.73 2.865 2.865 0 0 0 0 5.73Z"/></g><defs><clipPath id="a"><path fill="#fff" d="M0 0h100v100H0z"/></clipPath></defs></svg>