<svg xmlns="http://www.w3.org/2000/svg" width="32" height="32" fill="none"><g clip-path="url(#a)"><path fill="#304FFE" d="M31.706 6.649c-.355.23-.862.444-1.075.684-.08.08-.125.17-.107.258v.916l-.266.897-.267.89-.293.977-.605 2-.587 1.973-.444 1.485c0 .23-.009.462-.027.684a8.812 8.812 0 0 1-.524 2.436 8.1 8.1 0 0 1-.622 1.35 5.728 5.728 0 0 1-.302.499 8.329 8.329 0 0 1-1.254 1.528 7.533 7.533 0 0 1-1.2.987h-.009a1.132 1.132 0 0 1-.24.16 6.416 6.416 0 0 1-.87.489 5.532 5.532 0 0 1-.623.276c-.044.026-.098.044-.142.062a5.82 5.82 0 0 1-1.68.48c-.036.009-.063.009-.098.018-.356.062-.702.115-1.058.142-.16.018-.329.026-.489.026l-.63-.035-3.04-.16c0-.009-.01 0-.01 0l-1.529-.08c-.115 0-.24 0-.355-.009a8.193 8.193 0 0 1-1.405-.169h-.008a9.09 9.09 0 0 1-2.41-.827 9.276 9.276 0 0 1-1.208-.728 6.058 6.058 0 0 1-.462-.374 11.694 11.694 0 0 1-1.307-1.289 2.586 2.586 0 0 1-.151-.169 7.618 7.618 0 0 1-.854-1.324 6.726 6.726 0 0 1-.515-1.324 4.704 4.704 0 0 1-.133-.507.068.068 0 0 1-.018-.044 9.379 9.379 0 0 1-.214-1.13 4.935 4.935 0 0 1-.08-.888c-.017-.116-.017-.24-.017-.356l1.697-2.622 1.663-2.56.755-1.164.685-1.05.23-.364v-.915a5.643 5.643 0 0 0-.32-2.418 10.427 10.427 0 0 0-.755-1.724c-.338-.614-.693-1.165-.986-1.663C7.11 1.244 6.809.65 6.889.231a8.733 8.733 0 0 1 2-.231H23.11c3.715 0 6.915 2.311 8.24 5.564.142.347.267.711.355 1.085Z"/><path fill="#4928F4" d="M32 8.889v.24l-1.227.71-.782.454-.862.498-1.725 1.004-1.689.978-1.724.996-.684.4a2.4 2.4 0 0 1-.303 1.173c-.275.516-.737.942-1.324 1.307-.596.364-1.325.657-2.142.87 0 0 0-.008-.01 0-3.164.819-7.483.445-9.581-1.12-.587-.435-.996-.968-1.174-1.581a2.594 2.594 0 0 1-.08-.65v-6.39c.01-.134-.08-.267-.24-.4-.48-.383-1.609-.747-2.87-1.111-.987-.276-2.045-.552-2.934-.818-.702-.213-1.298-.427-1.653-.631.16-.311.346-.622.542-.916a8.928 8.928 0 0 1 5.35-3.67 8.733 8.733 0 0 1 2-.232h9.6a29.938 29.938 0 0 1 12.863 5.564c.142.347.267.711.356 1.085.16.586.257 1.19.284 1.822.009.133.009.276.009.418Z"/><path fill="#6200EA" d="M32 8.889v3.92l-.196.604-.667 2.071-.693 2.134-.364 1.137-.338 1.058-.329 1.005-.32.995-.169.525-.222.693c0 .675-.018 1.271-.062 1.778a.978.978 0 0 0-.018.16c-.053.47-.125.87-.24 1.209a.756.756 0 0 1-.045.15c-.23.64-.577 1.05-1.093 1.316a2.552 2.552 0 0 1-.418.178c-.47.16-1.066.24-1.795.285-.534.035-1.147.044-1.84.044h-.613l-1.058-.044-.187-.01-1.929-.08-1.955-.08-6.445-.266-1.67-.071h-.232a14.62 14.62 0 0 1-1.804-.125c-.747-.115-1.325-.31-1.76-.604-.623-.4-.987-.987-1.2-1.804a4.282 4.282 0 0 1-.125-.623c-.089-.515-.133-1.11-.16-1.777 0-.134 0-.267-.009-.41-.009-.008 0-.008 0-.008v-.516c-.009-.258-.009-.524-.009-.8l.045-1.43.026-1.023.036-1.191v-.17l.062-2.186.062-2.186.063-2.054.053-2.017.018-.534c0-.275-.934-.435-1.974-.569C1.6 7.467.693 7.37.151 7.244c.044-.204.089-.408.142-.604.16-.64.4-1.244.702-1.822.16-.311.347-.622.543-.916a29.624 29.624 0 0 1 6.008-1.929 27.945 27.945 0 0 1 5.716-.586c6.542 0 12.587 2.213 17.369 5.946.462.356.915.738 1.36 1.138.009.133.009.276.009.418Z"/><path fill="#673AB7" d="M32 10.996v4.035l-.489.942-.933 1.822-.498.96-.453.88-.196.383c0 .275 0 .542-.018.8 0 .382-.018.746-.044 1.084-.036.4-.09.765-.142 1.102-.134.703-.32 1.307-.587 1.805a3.067 3.067 0 0 1-.107.177 3.33 3.33 0 0 1-.338.454c-.16.195-.337.364-.542.506a3.79 3.79 0 0 1-1.066.56c-.507.187-1.094.312-1.787.383-.453.044-.951.07-1.493.07l-.374.019-1.849.106h-.008l-1.965.116-2 .115-2.756.16-3.35.196-.49.027c-.453 0-.88-.027-1.288-.08-.045-.01-.08-.018-.125-.018a6.644 6.644 0 0 1-1.653-.48 5.414 5.414 0 0 1-1.573-1.049 5.81 5.81 0 0 1-1.005-1.307c-.062-.115-.124-.222-.178-.346a8.305 8.305 0 0 1-.64-1.751 3.772 3.772 0 0 1-.07-.338 4.795 4.795 0 0 1-.125-.64 14.261 14.261 0 0 1-.178-1.805v-.009c-.009-.257-.018-.506-.018-.773l-.435-1.04-.063-.16-.053-.133-.667-1.591-.106-.258-.64-1.538-.711-1.715h-.01l-.72-1.734-.257-.63V8.888c0-.56.053-1.111.151-1.644.045-.205.089-.41.142-.605A24.347 24.347 0 0 1 2.65 5.45a25.704 25.704 0 0 1 5.884-1.813 26.734 26.734 0 0 1 4.73-.427c6.497 0 12.39 2.356 16.995 6.195.178.143.346.285.515.436.418.364.827.747 1.227 1.156Z"/><path fill="#8E24AA" d="M32 13.644v4.57l-.507 1.057-.96 2-.009.027c0 .382-.017.729-.044 1.04-.089 1.022-.338 1.67-.747 2.07-.293.303-.657.472-1.11.56-.027.01-.063.01-.09.018a2.446 2.446 0 0 1-.453.045c-.551.053-1.2.018-1.947-.036-.08 0-.169-.009-.258-.017a72.751 72.751 0 0 0-1.76-.098 42.453 42.453 0 0 0-1.084-.018h-.018l-.898.071h-.008l-2.018.142-2.302.178-.338.027-2.694.195-1.395.107-1.378.098c-.24 0-.47 0-.702-.01 0 0-.009-.008-.009 0-1.004-.017-1.902-.079-2.702-.23-.738-.125-1.387-.32-1.938-.614a3.934 3.934 0 0 1-1.422-1.164c-.365-.489-.631-1.102-.8-1.84v-.009a10.186 10.186 0 0 1-.196-2.07l-.133-.24-.791-1.414-.116-.196-.062-.124-.827-1.467-.408-.738-.516-.915-.889-1.591L0 12.222v-3.27a21.817 21.817 0 0 1 2.427-1.379 21.825 21.825 0 0 1 3.155-1.306A24.266 24.266 0 0 1 9.29 5.36a24.294 24.294 0 0 1 3.973-.32c6.045 0 11.591 2.16 15.867 5.751.195.151.382.32.569.48a22.796 22.796 0 0 1 2.106 2.142c.072.08.143.151.196.231Z"/><path fill="#C2185B" d="M32 16.631v6.427a8.715 8.715 0 0 0-.871-.436 7.466 7.466 0 0 0-.65-.284 13.853 13.853 0 0 0-1.386-.525c-.16-.062-.329-.115-.497-.169a22.587 22.587 0 0 0-1.707-.444 17.028 17.028 0 0 0-.711-.124c-.774-.134-1.6-.214-2.463-.223-.07-.009-.15-.009-.222-.009l-2.284.018-3.111.018h-.01l-6.657.053c-2.115 0-3.413.507-4.195.711 0 0-.01 0-.01.01-.826.213-1.084.08-1.155-1.37-.018-.4-.027-.915-.027-1.546l-.497-.383-.871-.657-.534-.41-.106-.08-1.476-1.12-.222-.168-.462-.356-.854-.64L0 14.142V11.12c.089-.071.169-.133.258-.187a22.89 22.89 0 0 1 4.124-2.257 23.36 23.36 0 0 1 4.071-1.298c.383-.08.774-.16 1.174-.213a21.35 21.35 0 0 1 3.635-.303c5.342 0 10.249 1.858 14.142 4.934.587.462 1.156.95 1.69 1.475a22.934 22.934 0 0 1 2.044 2.213c.124.16.249.32.373.49.169.213.329.435.489.657Z"/><path fill="#D81B60" d="M32 20.195v2.916c0 .578-.053 1.147-.16 1.698-.16.817-.436 1.6-.809 2.329a1.843 1.843 0 0 1-.667.008c-.56-.097-1.217-.39-1.928-.773a.328.328 0 0 1-.098-.044c-.223-.116-.454-.24-.685-.383-.47-.257-.969-.542-1.466-.808-.107-.054-.214-.107-.312-.16a13.66 13.66 0 0 0-1.742-.765h-.009a5.038 5.038 0 0 0-.39-.124 5.68 5.68 0 0 0-1.52-.231l-.979-.285-4.328-1.253h-.01l-2.657-.773h-.009l-1.155-.338c-3.343 0-5.396 1.422-6.392.88-.39-.205-.622-.72-.702-1.733a10.641 10.641 0 0 1-.035-.978l-1.04-.507-.045-.018h-.009l-.746-.373-.818-.391-.062-.027-.151-.08-1.743-.844L0 16.488V13.44c.151-.133.311-.258.471-.382.169-.134.338-.258.507-.391h.009a20.636 20.636 0 0 1 3.342-1.974A19.926 19.926 0 0 1 8.693 9.2c.223-.053.454-.107.685-.142 1.262-.24 2.56-.365 3.884-.365a20.877 20.877 0 0 1 15.245 6.551 20.705 20.705 0 0 1 1.937 2.374c.045.062.09.124.134.178.329.48.63.968.915 1.475.187.302.347.613.507.924Z"/><path fill="#F50057" d="M31.84 24.809a8.827 8.827 0 0 1-1.369 3.27 8.238 8.238 0 0 1-.391.534 32.63 32.63 0 0 0-1.369-.497v-.01a26.845 26.845 0 0 0-1.467-.462 16.195 16.195 0 0 0-2.391-.542 9.532 9.532 0 0 0-1.546-.142l-.41-.116h-.008l-2.151-.622-1.325-.382-1.475-.427h-.01l-.48-.133-5.804-1.671-1.67-.48-1.245-.294-2.027-.48-.249-.062h-.009l-2.035-.47v-.01l-.365-.08-.186-.044-1.485-.347-.169-.044-1.262-1.04L0 19.467V15.84c.329-.32.667-.622 1.022-.915.107-.098.222-.187.338-.276a17.95 17.95 0 0 1 2.907-1.902 17.614 17.614 0 0 1 3.67-1.476 7.3 7.3 0 0 1 .756-.204 18.809 18.809 0 0 1 4.57-.551 19.194 19.194 0 0 1 14.772 6.897c.587.703 1.12 1.44 1.592 2.223.044.062.08.115.115.177.285.471.551.96.791 1.458.223.444.418.889.596 1.351.284.711.515 1.44.71 2.187Z"/><path fill="#FF1744" d="M30.471 28.08a8.71 8.71 0 0 1-1.689 1.858 9.142 9.142 0 0 1-1.333.924 4.721 4.721 0 0 1-.542-.169c-.587-.204-1.2-.542-1.77-.898a21.258 21.258 0 0 1-1.92-1.395l-.186-.16-1.511-.133-.187-.018-1.955-.17-2.027-.177-2.995-.267-4.747-.417-.018-.01-1.671-.808-1.689-.818-1.36-.658-.293-.142-.365-.178-1.262-.613-1.68-.809-.524-.258-.747-.23V18.56a18.3 18.3 0 0 1 1.333-1.422c.303-.285.623-.57.951-.836.054-.044.107-.089.16-.124a.335.335 0 0 1 .116-.09 14.812 14.812 0 0 1 1.644-1.155 14.889 14.889 0 0 1 2.072-1.102c.773-.347 1.582-.64 2.417-.862a16.826 16.826 0 0 1 4.57-.622c3.626 0 6.977 1.102 9.741 2.995a17.246 17.246 0 0 1 4.507 4.507c.4.569.756 1.173 1.085 1.795.115.232.23.463.328.694.107.222.205.444.303.666.186.463.355.925.506 1.405a16.545 16.545 0 0 1 .738 3.67Z"/><path fill="#FF5722" d="M28.791 29.707c0 .07 0 .15-.009.23a9.141 9.141 0 0 1-1.333.925 7.475 7.475 0 0 1-.596.302 7.677 7.677 0 0 1-.622.267c-.302-.16-.711-.356-1.147-.542-.613-.276-1.28-.525-1.795-.605a1.643 1.643 0 0 0-.347-.035l-1.458-.187h-.017l-1.814-.24-1.83-.24-.854-.107-6.72-.87c-.436 0-.898-.027-1.378-.09-.587-.053-1.2-.142-1.813-.266a24.135 24.135 0 0 1-1.805-.4 36.517 36.517 0 0 1-1.777-.471 66.026 66.026 0 0 1-2.81-.907 7.78 7.78 0 0 1-.39-1.191A8.338 8.338 0 0 1 0 23.11v-1.484c.284-.471.596-.934.942-1.37.631-.835 1.351-1.6 2.134-2.275a.363.363 0 0 1 .088-.08l.01-.009c.275-.248.56-.47.862-.684a.951.951 0 0 1 .106-.089c.142-.107.294-.213.454-.311a15.328 15.328 0 0 1 4.177-1.991 15.574 15.574 0 0 1 4.49-.65c3.101 0 6 .917 8.417 2.48a15.359 15.359 0 0 1 4.498 4.428c.142.204.275.408.409.622.613 1.04 1.12 2.16 1.493 3.333.044.133.08.267.116.409.07.24.133.489.186.738.018.062.036.124.053.195.125.56.214 1.147.276 1.734v.009c.053.524.08 1.057.08 1.59Z"/><path fill="#FF6F00" d="M26.96 29.706c0 .312-.018.65-.054.987-.017.16-.035.32-.053.471a8.45 8.45 0 0 1-1.849.631 7.108 7.108 0 0 1-.87.143h-.01a17.673 17.673 0 0 1-.924-.605 51.252 51.252 0 0 1-1.716-1.27l-.018-.019c-.524-.4-.897-.702-.897-.702l-.943.036-1.813.062-.844.035-3.396.125-2.871.106a8.692 8.692 0 0 1-.684 0h-.01a19.978 19.978 0 0 1-1.306-.08 89.969 89.969 0 0 1-1.822-.16c-.614-.07-1.236-.142-1.831-.213a73.312 73.312 0 0 1-1.814-.222c-.417-.053-.782-.098-1.075-.133A8.54 8.54 0 0 1 1.475 28a8.107 8.107 0 0 1-.808-1.529 7.78 7.78 0 0 1-.392-1.191c.258-.791.596-1.538.996-2.258.32-.586.693-1.146 1.102-1.68.4-.524.836-1.013 1.307-1.458v-.009c.133-.133.266-.257.4-.373.249-.23.506-.444.773-.649h.009c.009-.018.018-.018.027-.026.213-.17.435-.32.657-.472a13.467 13.467 0 0 1 4.4-1.955c1.058-.258 2.17-.4 3.316-.4 2.258 0 4.391.542 6.267 1.52h.009a13.502 13.502 0 0 1 4.177 3.333 12.584 12.584 0 0 1 1.618 2.374 13.15 13.15 0 0 1 .853 1.91c.151.445.285.907.4 1.37.08.328.143.666.196 1.004.018.107.035.204.044.311.09.613.134 1.245.134 1.884Z"/><path fill="#FF9800" d="M25.138 29.706v.088c0 .303-.027.685-.054 1.094-.026.302-.053.613-.08.906a7.127 7.127 0 0 1-.87.143h-.01a7.65 7.65 0 0 1-1.013.062h-1.556l-.337-.098-1.751-.533-1.778-.534-4.116-1.235-1.777-.534s-.738.294-1.778.64h-.01c-.4.134-.835.276-1.297.418-.578.17-1.191.338-1.795.471-.623.143-1.236.25-1.787.294a4.755 4.755 0 0 1-.489.026 9.133 9.133 0 0 1-3.164-2.916c.062-.4.133-.79.24-1.172A11.214 11.214 0 0 1 2.95 23.83c.302-.524.64-1.031 1.031-1.502a.158.158 0 0 1 .062-.071c-.008-.01 0-.01 0-.01a5.73 5.73 0 0 1 .365-.426v-.009c.364-.39.738-.764 1.147-1.11.142-.116.275-.232.426-.348.027-.026.054-.044.09-.07 2-1.53 4.497-2.454 7.19-2.454 3.058 0 5.84 1.147 7.947 3.031a11.91 11.91 0 0 1 2.524 3.227c.054.089.107.186.151.284.08.16.16.33.232.507.293.64.524 1.315.684 2.009l.053.213a11.898 11.898 0 0 1 .284 2.604Z"/><path fill="#FFC107" d="M23.307 29.707c0 .177-.01.373-.018.577a15.64 15.64 0 0 1-.089 1.05 8.556 8.556 0 0 1-.089.666H18.24l-.942-.151-3.68-.587-.525-.08-1.2-.195c-.524 0-1.662.23-2.862.453-.63.115-1.27.24-1.849.32l-.204.026h-.009a8.368 8.368 0 0 1-1.796-.604 7.45 7.45 0 0 1-.533-.267 9.04 9.04 0 0 1-1.413-.968c-.01-.107-.018-.196-.018-.24 0-.232.009-.454.027-.676.035-.569.115-1.12.24-1.653.195-.81.48-1.591.862-2.311.071-.151.151-.303.24-.445.035-.07.08-.133.115-.204.16-.258.338-.507.516-.756.373-.489.791-.95 1.236-1.369h.008c.036-.035.072-.07.107-.098.045-.035.08-.08.125-.106.177-.16.355-.302.542-.436 0-.009.009-.009.009-.009a10.027 10.027 0 0 1 6.026-1.99c1.76 0 3.396.444 4.827 1.226h.009a10.06 10.06 0 0 1 3.138 2.693c.328.427.622.88.87 1.36h.01l.133.267c.267.524.48 1.076.64 1.644h.009c.009.045.026.09.035.134.107.382.196.773.258 1.173l.027.249c.062.427.089.862.089 1.307Z"/><path fill="#FFD54F" d="M21.484 29.609c0 .142 0 .293-.017.435V30.062a8.674 8.674 0 0 1-.25 1.84.202.202 0 0 1-.026.098H17.04l-3.422-.738-.454-.098-.07.018-3.796.782-.17.036h-.24a8.658 8.658 0 0 1-1.67-.16l-.24-.053h-.01a8.373 8.373 0 0 1-1.795-.605 3.341 3.341 0 0 1-.044-.293 7.403 7.403 0 0 1-.089-1.183c0-.15 0-.302.009-.453.027-.48.098-.95.204-1.404.071-.338.17-.667.285-.978a7.99 7.99 0 0 1 1.093-2.044 8.025 8.025 0 0 1 2.098-1.992 8.217 8.217 0 0 1 4.533-1.35c.33 0 .65.017.96.062h.018c.951.106 1.84.373 2.658.773h.009a8.228 8.228 0 0 1 3.564 3.378c.098.169.187.346.267.524.124.276.24.569.338.862h.008a9.2 9.2 0 0 1 .25 1.005v.009c.097.489.15.995.15 1.51Z"/><path fill="#FFE082" d="M19.653 29.795v.027c0 .525-.062 1.04-.186 1.547a3.948 3.948 0 0 1-.187.63h-3.982l-2.036-.56-2.035.56H8.889a8.665 8.665 0 0 1-1.671-.16c-.018-.026-.027-.052-.036-.08a5.82 5.82 0 0 1-.266-1.164 5.849 5.849 0 0 1-.054-.8c0-.106 0-.222.018-.328.009-.418.071-.827.178-1.218.053-.267.133-.525.24-.773a1.78 1.78 0 0 1 .151-.356c.133-.302.293-.596.471-.88.196-.284.409-.551.649-.8.284-.32.604-.613.969-.853a5.944 5.944 0 0 1 2.107-.978 6.074 6.074 0 0 1 1.617-.214c1.778 0 3.37.712 4.525 1.858.044.045.098.098.142.16h.009c.124.134.24.267.355.418.33.418.605.871.818 1.369.107.231.196.471.267.72.009.035.018.062.026.098.125.435.205.889.223 1.36.018.133.026.275.026.417Z"/><path fill="#FFECB3" d="M17.83 29.795c0 .365-.044.711-.142 1.04a4.515 4.515 0 0 1-.39 1.014 2.357 2.357 0 0 1-.09.15H9.315a.067.067 0 0 1-.018-.035 2.91 2.91 0 0 1-.266-.524 4.08 4.08 0 0 1-.32-1.316c-.018-.106-.018-.222-.018-.329 0-.053 0-.115.009-.169.009-.39.062-.764.169-1.11.089-.32.204-.614.355-.898 0 0 .01-.01.01-.018.106-.187.221-.373.355-.551a4.443 4.443 0 0 1 1.68-1.378h.008c.214-.107.436-.196.667-.258h.01a4.51 4.51 0 0 1 1.306-.186c.524 0 1.03.08 1.493.248.169.045.329.116.489.196h.009a4.438 4.438 0 0 1 1.858 1.644c.088.134.168.276.24.427.035.062.07.133.097.196.205.462.33.969.365 1.502a.717.717 0 0 1 .009.142c.009.071.009.142.009.213Z"/><path stroke="#fff" stroke-linecap="round" stroke-linejoin="round" stroke-miterlimit="10" stroke-width="2" d="M21.077 5H10.923A5.887 5.887 0 0 0 5 10.923v10.154C5 24.377 7.623 27 10.923 27h10.154c3.3 0 5.923-2.623 5.923-5.923V10.923C27 7.623 24.377 5 21.077 5Z"/><path fill="#fff" d="M21.923 10.077a.846.846 0 1 0 0-1.692.846.846 0 0 0 0 1.692Z"/><path stroke="#fff" stroke-linecap="round" stroke-linejoin="round" stroke-miterlimit="10" stroke-width="2" d="M16 20a4 4 0 1 0 0-8 4 4 0 0 0 0 8Z"/></g><defs><clipPath id="a"><path fill="#fff" d="M0 0h32v32H0z"/></clipPath></defs></svg>