<svg xmlns="http://www.w3.org/2000/svg" width="32" height="32" fill="none"><g clip-path="url(#a)"><rect width="31" height="31" x=".5" y=".5" stroke="#fff" rx="8.5"/><path stroke="#fff" stroke-linecap="round" stroke-linejoin="round" stroke-miterlimit="10" stroke-width="2" d="M16 20a4 4 0 1 0 0-8 4 4 0 0 0 0 8Z"/><path stroke="#fff" stroke-linecap="round" stroke-linejoin="round" stroke-miterlimit="10" stroke-width="2" d="M21.077 5H10.923A5.887 5.887 0 0 0 5 10.923v10.154C5 24.377 7.623 27 10.923 27h10.154c3.3 0 5.923-2.623 5.923-5.923V10.923C27 7.623 24.377 5 21.077 5Z"/><path fill="#fff" d="M21.917 9.833a.917.917 0 1 0 0-1.833.917.917 0 0 0 0 1.833Z"/></g><defs><clipPath id="a"><path fill="#fff" d="M0 0h32v32H0z"/></clipPath></defs></svg>