<svg xmlns="http://www.w3.org/2000/svg" width="100" height="100" fill="none"><g clip-path="url(#a)"><path fill="#304FFE" d="M99.083 20.778c-1.111.722-2.695 1.389-3.361 2.138-.25.25-.39.528-.334.806v2.861l-.833 2.806-.833 2.777-.917 3.056-1.889 6.25-1.833 6.166-1.39 4.64c0 .721-.027 1.444-.082 2.138a27.538 27.538 0 0 1-1.64 7.611 25.321 25.321 0 0 1-1.944 4.222 17.844 17.844 0 0 1-.944 1.556 26.022 26.022 0 0 1-3.917 4.778c-1.139 1.139-2.389 2.194-3.75 3.083h-.028a3.526 3.526 0 0 1-.75.5 20.094 20.094 0 0 1-2.722 1.528c-.639.333-1.278.61-1.944.86-.14.084-.306.14-.445.195-1.583.75-3.416 1.25-5.25 1.5-.11.028-.194.028-.305.056-1.111.194-2.195.36-3.306.444-.5.056-1.028.084-1.528.084l-1.972-.112-9.5-.5c0-.027-.028 0-.028 0l-4.777-.25c-.361 0-.75 0-1.111-.027a25.615 25.615 0 0 1-4.39-.528h-.027a28.405 28.405 0 0 1-7.528-2.583 29.02 29.02 0 0 1-3.778-2.278c-.5-.361-.972-.75-1.444-1.167-1.333-1.11-2.528-2.305-3.639-3.528a7.182 7.182 0 0 1-.444-.5 8.069 8.069 0 0 1-.473-.527c-1.055-1.334-1.944-2.695-2.666-4.14a21.025 21.025 0 0 1-1.611-4.138 14.72 14.72 0 0 1-.417-1.583.212.212 0 0 1-.056-.14c-.277-1.138-.527-2.333-.666-3.527a15.426 15.426 0 0 1-.25-2.778c-.056-.36-.056-.75-.056-1.11l5.306-8.195 5.194-8 2.361-3.639 2.14-3.278.721-1.139v-2.86c.056-.64.084-1.306.056-1.917-.028-1.945-.417-3.834-1.056-5.64-.61-1.916-1.472-3.721-2.36-5.388-1.056-1.917-2.167-3.639-3.084-5.194-1.361-2.278-2.306-4.14-2.056-5.445 2-.472 4.111-.722 6.25-.722h44.445c11.61 0 21.61 7.222 25.75 17.389a23.04 23.04 0 0 1 1.11 3.389Z"/><path fill="#4928F4" d="M100 27.777v.75l-3.833 2.223-2.445 1.416-2.694 1.556-5.39 3.139-5.277 3.055-5.389 3.111-2.139 1.25a7.504 7.504 0 0 1-.944 3.667c-.861 1.611-2.306 2.944-4.139 4.083-1.861 1.14-4.139 2.056-6.694 2.722 0 0 0-.027-.028 0-9.89 2.556-23.389 1.39-29.944-3.5-1.834-1.36-3.112-3.027-3.667-4.944a8.11 8.11 0 0 1-.25-2.028V24.305c.028-.416-.25-.833-.75-1.25-1.5-1.194-5.028-2.333-8.972-3.472-3.084-.861-6.39-1.722-9.167-2.555-2.194-.667-4.056-1.334-5.167-1.973.5-.972 1.084-1.944 1.695-2.86C8.695 6.5 14.639 2.304 21.528.721c2-.472 4.111-.722 6.25-.722h30c14.916 2.611 28.666 8.694 40.194 17.389a23.016 23.016 0 0 1 1.111 3.389c.5 1.833.806 3.722.89 5.694.027.417.027.861.027 1.305Z"/><path fill="#6200EA" d="M99.999 27.778v12.25l-.611 1.889-2.084 6.472-2.166 6.666-1.14 3.556-1.055 3.305-1.027 3.14-1 3.11-.528 1.64-.695 2.166c0 2.11-.055 3.972-.194 5.555-.028.167-.056.334-.056.5-.166 1.472-.388 2.722-.75 3.778a2.353 2.353 0 0 1-.138.472c-.723 2-1.806 3.278-3.417 4.111-.39.222-.834.39-1.306.556-1.472.5-3.333.75-5.61.889-1.667.11-3.584.139-5.75.139h-1.917l-3.306-.14-.583-.027-6.028-.25-6.111-.25-20.139-.833-5.222-.223h-.722c-2.167-.027-4.028-.166-5.64-.388-2.333-.362-4.138-.973-5.5-1.89-1.944-1.25-3.083-3.083-3.75-5.638a13.395 13.395 0 0 1-.388-1.945c-.278-1.61-.417-3.472-.5-5.555 0-.417 0-.834-.028-1.278-.028-.028 0-.028 0-.028v-1.61c-.028-.806-.028-1.64-.028-2.5l.14-4.473.082-3.194.112-3.722V53.5l.194-6.834.194-6.833.195-6.416.167-6.306.055-1.667c0-.86-2.917-1.36-6.166-1.777-2.584-.334-5.417-.64-7.112-1.028.14-.639.278-1.278.445-1.889.5-2 1.25-3.889 2.194-5.694.5-.973 1.084-1.945 1.695-2.861 6-2.64 12.25-4.695 18.777-6.028a87.328 87.328 0 0 1 17.861-1.833c20.445 0 39.334 6.916 54.278 18.583a71.994 71.994 0 0 1 4.25 3.555c.028.417.028.861.028 1.306Z"/><path fill="#673AB7" d="M100 34.362v12.61l-1.528 2.945-2.917 5.695-1.555 3-1.417 2.75-.611 1.194c0 .861 0 1.695-.056 2.5a43.1 43.1 0 0 1-.138 3.389 50.167 50.167 0 0 1-.445 3.444c-.417 2.195-1 4.084-1.833 5.64a9.78 9.78 0 0 1-.334.555c-.305.5-.666.972-1.055 1.416a8.316 8.316 0 0 1-1.695 1.584c-.944.722-2.055 1.305-3.333 1.75-1.583.583-3.417.972-5.583 1.194a47.817 47.817 0 0 1-4.667.222l-1.167.056-5.777.333h-.028L59.722 85l-6.25.361-8.611.5-10.472.611-1.528.084c-1.417 0-2.75-.084-4.028-.25-.139-.028-.25-.056-.389-.056-1.889-.305-3.61-.805-5.166-1.5a16.911 16.911 0 0 1-4.917-3.277 18.16 18.16 0 0 1-3.139-4.084c-.194-.36-.389-.694-.555-1.083-.834-1.639-1.5-3.472-2-5.472a11.825 11.825 0 0 1-.223-1.056 14.974 14.974 0 0 1-.389-2c-.305-1.778-.472-3.666-.555-5.639v-.027c-.028-.806-.056-1.584-.056-2.417l-1.36-3.25-.195-.5-.167-.417-2.083-4.972-.333-.805-2-4.806-2.223-5.36h-.027l-2.25-5.418L0 32.195V27.78c0-1.75.167-3.473.472-5.14.14-.638.278-1.277.445-1.888a76.085 76.085 0 0 1 7.36-3.722 80.326 80.326 0 0 1 18.39-5.667 83.543 83.543 0 0 1 14.777-1.333c20.306 0 38.722 7.36 53.111 19.36.556.445 1.084.89 1.611 1.362A66.423 66.423 0 0 1 100 34.36Z"/><path fill="#8E24AA" d="M100 42.638v14.278l-1.584 3.305-3 6.25-.027.084c0 1.194-.056 2.277-.14 3.25-.277 3.194-1.055 5.222-2.333 6.472-.916.944-2.055 1.472-3.472 1.75-.083.028-.194.028-.278.055a7.651 7.651 0 0 1-1.416.14c-1.722.166-3.75.055-6.084-.112-.25 0-.527-.028-.805-.055-1.695-.112-3.5-.223-5.5-.306a131.286 131.286 0 0 0-3.389-.056h-.056l-2.805.223h-.028l-6.305.444-7.195.556-1.055.083-8.417.611-4.361.333-4.306.306c-.75 0-1.472 0-2.194-.028 0 0-.028-.028-.028 0-3.139-.055-5.944-.25-8.444-.722-2.306-.389-4.334-1-6.056-1.917a12.298 12.298 0 0 1-4.444-3.639c-1.14-1.527-1.972-3.444-2.5-5.75v-.027c-.39-1.861-.611-4.028-.611-6.472l-.417-.75-2.472-4.417-.361-.611-.195-.39-2.583-4.582-1.278-2.306-1.611-2.861-2.778-4.972L0 38.194V27.972a68.185 68.185 0 0 1 7.583-4.306 68.2 68.2 0 0 1 9.861-4.083 75.834 75.834 0 0 1 11.584-2.833c4.027-.667 8.166-1 12.416-1 18.89 0 36.222 6.75 49.584 17.972.61.472 1.194 1 1.777 1.5a71.296 71.296 0 0 1 6.584 6.694c.222.25.444.472.61.722Z"/><path fill="#C2185B" d="M100 51.972v20.083a27.297 27.297 0 0 0-2.722-1.36 23.327 23.327 0 0 0-2.028-.89 43.254 43.254 0 0 0-3.472-1.36 7.789 7.789 0 0 0-.862-.278c-.5-.195-1.027-.362-1.555-.528a70.46 70.46 0 0 0-5.334-1.39 52.89 52.89 0 0 0-2.222-.388c-2.416-.417-5-.667-7.694-.694-.222-.028-.472-.028-.695-.028l-7.138.055-9.723.056h-.027l-20.806.167c-6.611 0-10.667 1.583-13.111 2.222 0 0-.028 0-.028.028-2.583.666-3.389.25-3.61-4.278-.056-1.25-.084-2.861-.084-4.833l-1.556-1.195-2.722-2.055-1.667-1.278-.333-.25L8 50.278l-.694-.528L5.86 48.64l-2.667-2L0 44.195V34.75c.278-.222.528-.416.806-.583a71.538 71.538 0 0 1 12.888-7.056 73.002 73.002 0 0 1 12.723-4.055c1.194-.25 2.416-.5 3.666-.667 3.695-.639 7.5-.944 11.361-.944 16.695 0 32.028 5.805 44.195 15.416 1.833 1.445 3.61 2.973 5.277 4.611a71.66 71.66 0 0 1 6.39 6.917c.388.5.777 1 1.166 1.528.528.666 1.028 1.36 1.528 2.055Z"/><path fill="#D81B60" d="M100 63.111v9.111c0 1.806-.167 3.583-.5 5.306-.5 2.555-1.361 5-2.528 7.277-.611.14-1.306.14-2.083.028-1.75-.305-3.806-1.222-6.028-2.416a1.028 1.028 0 0 1-.306-.14 33.73 33.73 0 0 1-2.139-1.194c-1.472-.805-3.027-1.694-4.583-2.528a31.555 31.555 0 0 1-.972-.5c-1.778-.916-3.611-1.75-5.445-2.389h-.027a15.694 15.694 0 0 0-1.223-.388c-1.583-.445-3.194-.723-4.75-.723l-3.055-.889-13.528-3.916h-.028L44.5 67.333h-.028l-3.611-1.055c-10.444 0-16.861 4.444-19.972 2.75-1.222-.64-1.945-2.25-2.195-5.417-.083-.889-.11-1.889-.11-3.055l-3.25-1.584-.14-.055h-.027l-2.334-1.167-2.555-1.222-.195-.084-.472-.25-5.444-2.638L0 51.528V42c.472-.416.972-.805 1.472-1.194C2 40.389 2.528 40 3.056 39.584h.027c3.278-2.362 6.75-4.445 10.445-6.167a62.262 62.262 0 0 1 13.639-4.667 26.474 26.474 0 0 1 2.138-.444c3.945-.75 8-1.139 12.14-1.139 14.638 0 28.083 4.75 38.916 12.75a67.982 67.982 0 0 1 8.722 7.722 64.697 64.697 0 0 1 6.056 7.417c.139.194.277.389.416.555a60.59 60.59 0 0 1 2.861 4.611c.584.945 1.084 1.917 1.584 2.89Z"/><path fill="#F50057" d="M99.5 77.527a27.58 27.58 0 0 1-4.278 10.222A25.755 25.755 0 0 1 94 89.416c-1-.389-2.472-.945-4.278-1.556v-.028a83.646 83.646 0 0 0-4.583-1.444c-.473-.139-.945-.278-1.445-.417-1.972-.527-4.028-1-6.028-1.277-1.666-.278-3.305-.445-4.833-.445l-1.278-.36h-.028l-6.722-1.945-4.139-1.195-4.61-1.333h-.028l-1.5-.417-18.14-5.222-5.221-1.5-3.89-.916-6.333-1.5-.777-.195h-.028l-6.361-1.472v-.028l-1.14-.25-.582-.139-4.64-1.083-.527-.139-3.945-3.25L0 60.833V49.5c1.028-1 2.083-1.945 3.194-2.861.334-.306.695-.584 1.056-.862.333-.277.694-.555 1.056-.833 2.527-1.917 5.194-3.639 8.027-5.111a55.05 55.05 0 0 1 11.472-4.611c.778-.25 1.556-.472 2.362-.639 4.555-1.139 9.333-1.722 14.277-1.722 12.417 0 23.972 3.75 33.528 10.166 4.75 3.195 9.028 7.028 12.639 11.39 1.833 2.194 3.5 4.5 4.972 6.944.139.194.25.36.361.555a55.34 55.34 0 0 1 2.472 4.556 47.504 47.504 0 0 1 1.862 4.222c.888 2.222 1.61 4.5 2.222 6.833Z"/><path fill="#FF1744" d="M95.222 87.75A25.755 25.755 0 0 1 94 89.416c-1.222 1.528-2.556 2.917-4.056 4.14a28.584 28.584 0 0 1-4.166 2.888 14.712 14.712 0 0 1-1.695-.528c-1.833-.639-3.75-1.694-5.528-2.805-2.666-1.695-4.972-3.528-6-4.361l-.583-.5-4.722-.417-.584-.055-6.11-.528-6.334-.556-9.361-.833-14.833-1.306-.056-.028L24.75 82l-5.278-2.556-4.25-2.055-.916-.445-1.14-.555-3.944-1.917-5.25-2.528-1.639-.805L0 70.417V58a57.142 57.142 0 0 1 4.167-4.444 53.932 53.932 0 0 1 2.972-2.611c.167-.14.333-.278.5-.39.111-.138.25-.222.361-.277a46.308 46.308 0 0 1 5.139-3.611 46.56 46.56 0 0 1 6.472-3.445c2.417-1.083 4.944-2 7.556-2.694 4.527-1.278 9.333-1.944 14.277-1.944 11.334 0 21.806 3.444 30.445 9.36a53.891 53.891 0 0 1 14.083 14.084c1.25 1.778 2.361 3.666 3.389 5.61.36.723.722 1.445 1.028 2.167.333.695.639 1.39.944 2.084a58.856 58.856 0 0 1 1.583 4.389 51.742 51.742 0 0 1 2.306 11.472Z"/><path fill="#FF5722" d="M89.972 92.833c0 .223 0 .473-.028.723a28.584 28.584 0 0 1-4.166 2.889c-.612.333-1.223.666-1.862.944-.638.306-1.277.583-1.944.833a50.641 50.641 0 0 0-3.583-1.694c-1.917-.861-4-1.64-5.611-1.89a5.125 5.125 0 0 0-1.084-.11l-4.555-.584h-.056l-5.666-.75-5.723-.75-2.666-.333-21-2.722c-1.361 0-2.806-.083-4.306-.278a52.646 52.646 0 0 1-5.667-.833c-1.888-.333-3.805-.778-5.638-1.25-1.917-.445-3.806-.972-5.556-1.472a206.944 206.944 0 0 1-5.5-1.722 105.8 105.8 0 0 1-3.278-1.112A24.314 24.314 0 0 1 .861 79C.278 76.834 0 74.556 0 72.222v-4.638a40.324 40.324 0 0 1 2.944-4.278c1.973-2.611 4.223-5 6.667-7.111.083-.111.195-.195.278-.25l.028-.028a28.43 28.43 0 0 1 2.694-2.139c.111-.11.222-.194.333-.277.445-.334.917-.667 1.417-.973a47.888 47.888 0 0 1 13.056-6.222c4.444-1.333 9.138-2.028 14.027-2.028a48.33 48.33 0 0 1 26.306 7.75 47.995 47.995 0 0 1 14.055 13.833c.445.64.861 1.278 1.278 1.945 1.917 3.25 3.5 6.75 4.667 10.416.139.417.25.834.36 1.278.223.75.418 1.528.584 2.306.056.194.111.389.167.61.389 1.75.666 3.584.86 5.417v.028c.168 1.64.25 3.306.25 4.972Z"/><path fill="#FF6F00" d="M84.25 92.832c0 .973-.056 2.028-.168 3.084-.055.5-.11 1-.166 1.472a26.39 26.39 0 0 1-5.778 1.972c-.889.195-1.805.361-2.722.445h-.028a55.412 55.412 0 0 1-2.889-1.89c-1.86-1.305-3.805-2.777-5.36-3.972-.029-.027-.029-.027-.056-.055-1.64-1.25-2.806-2.195-2.806-2.195l-2.944.112-5.667.194-2.639.111-10.611.39-8.972.332c-.584.028-1.278.028-2.14 0h-.027a62.54 62.54 0 0 1-4.083-.25 283.653 283.653 0 0 1-5.695-.5c-1.916-.222-3.86-.444-5.722-.666-2.055-.222-4-.472-5.666-.695a524.17 524.17 0 0 0-3.362-.416 26.671 26.671 0 0 1-2.138-2.806c-1-1.5-1.862-3.083-2.528-4.778A24.315 24.315 0 0 1 .86 79c.805-2.472 1.86-4.805 3.11-7.055a40.66 40.66 0 0 1 3.445-5.25 37.593 37.593 0 0 1 4.083-4.556v-.027c.417-.417.834-.806 1.25-1.167a33.339 33.339 0 0 1 2.417-2.028h.028c.028-.055.055-.055.083-.083.667-.528 1.361-1 2.056-1.472a42.08 42.08 0 0 1 13.75-6.111A43.734 43.734 0 0 1 41.443 50c7.056 0 13.723 1.694 19.584 4.75h.028A42.201 42.201 0 0 1 74.11 65.165a39.315 39.315 0 0 1 5.056 7.417 41.12 41.12 0 0 1 2.5 5.527c.055.167.111.306.166.445a54.153 54.153 0 0 1 1.25 4.277c.25 1.028.445 2.084.612 3.14.055.333.11.638.138.972.278 1.916.417 3.888.417 5.888Z"/><path fill="#FF9800" d="M78.555 92.83v.277c0 .945-.083 2.14-.166 3.417-.084.944-.167 1.917-.25 2.833-.889.195-1.806.361-2.722.445h-.028a23.952 23.952 0 0 1-3.167.194h-4.86l-1.056-.305-5.473-1.667-5.555-1.667-12.861-3.86-5.556-1.668s-2.305.917-5.555 2h-.028c-1.25.417-2.611.862-4.056 1.306-1.805.528-3.722 1.056-5.61 1.472-1.945.445-3.862.778-5.584.917-.528.055-1.056.083-1.528.083a28.559 28.559 0 0 1-7.75-6.306 26.66 26.66 0 0 1-2.139-2.805c.195-1.25.417-2.472.75-3.666a35.038 35.038 0 0 1 3.861-9.361c.945-1.64 2-3.223 3.223-4.695a.493.493 0 0 1 .194-.222c-.028-.028 0-.028 0-.028.361-.472.75-.916 1.139-1.333v-.028c1.139-1.222 2.306-2.389 3.583-3.472.445-.361.861-.722 1.334-1.083.083-.084.166-.14.277-.223 6.25-4.777 14.056-7.666 22.472-7.666 9.556 0 18.25 3.583 24.834 9.472a37.222 37.222 0 0 1 7.889 10.083c.166.278.333.583.472.889.25.5.5 1.028.722 1.583.917 2 1.639 4.111 2.139 6.278l.167.667c.222 1.028.416 2.083.555 3.138.222 1.64.334 3.306.334 5Z"/><path fill="#FFC107" d="M72.833 92.833c0 .556-.027 1.167-.055 1.806a48.966 48.966 0 0 1-.278 3.278c-.055.694-.167 1.388-.278 2.083H57l-2.944-.472-11.5-1.834-1.64-.25-3.75-.61c-1.638 0-5.194.721-8.943 1.416-1.973.361-3.973.75-5.778 1a37.56 37.56 0 0 0-.64.083h-.027a26.16 26.16 0 0 1-5.611-1.889 23.32 23.32 0 0 1-1.667-.833 28.25 28.25 0 0 1-4.416-3.028c-.028-.333-.056-.61-.056-.75 0-.722.028-1.416.083-2.11.111-1.778.361-3.5.75-5.167.611-2.528 1.5-4.972 2.695-7.222.222-.473.472-.945.75-1.39.111-.222.25-.416.36-.638.5-.806 1.056-1.584 1.612-2.361a35.329 35.329 0 0 1 3.861-4.278h.028c.111-.111.222-.222.333-.306.14-.11.25-.25.39-.333.555-.5 1.11-.944 1.694-1.361 0-.028.027-.028.027-.028 5.25-3.916 11.75-6.222 18.834-6.222 5.5 0 10.61 1.389 15.083 3.833h.028a31.438 31.438 0 0 1 9.805 8.417 28.31 28.31 0 0 1 2.722 4.25h.028l.417.833a28.143 28.143 0 0 1 2 5.139h.028c.027.139.083.278.11.417.334 1.194.612 2.416.806 3.666.028.25.056.528.084.778a28.26 28.26 0 0 1 .277 4.083Z"/><path fill="#FFD54F" d="M67.139 92.527c0 .444 0 .916-.056 1.36v.057a27.1 27.1 0 0 1-.778 5.75.634.634 0 0 1-.083.305H53.25l-10.694-2.306-1.417-.305-.222.055-11.862 2.445-.527.111h-.75c-1.778 0-3.528-.167-5.223-.5l-.75-.167h-.027a26.162 26.162 0 0 1-5.611-1.888 10.436 10.436 0 0 1-.14-.917 23.129 23.129 0 0 1-.277-3.695c0-.472 0-.944.028-1.416.083-1.5.305-2.972.639-4.39.222-1.055.527-2.082.888-3.055.306-.86.667-1.694 1.056-2.5.333-.694.722-1.36 1.111-2.027.39-.64.806-1.25 1.25-1.862a25.084 25.084 0 0 1 6.556-6.222 25.68 25.68 0 0 1 14.166-4.222c1.028 0 2.028.056 3 .195h.056a25.21 25.21 0 0 1 8.305 2.416h.028a25.714 25.714 0 0 1 9.945 8.611c.416.611.833 1.278 1.194 1.945.306.527.583 1.083.833 1.639.39.86.75 1.777 1.056 2.694h.028c.305 1.028.583 2.055.778 3.139v.028c.305 1.527.472 3.11.472 4.722Z"/><path fill="#FFE082" d="M61.417 93.111v.084c0 1.638-.195 3.25-.583 4.833A12.347 12.347 0 0 1 60.25 100H47.806l-6.361-1.75-6.361 1.75h-7.306c-1.778 0-3.528-.167-5.222-.5-.056-.083-.083-.167-.111-.25-.39-1.195-.695-2.389-.834-3.639a18.285 18.285 0 0 1-.166-2.5c0-.333 0-.694.055-1.028.028-1.305.223-2.583.556-3.805.167-.834.417-1.639.75-2.417.111-.389.278-.75.472-1.11.417-.945.917-1.862 1.472-2.75a19.451 19.451 0 0 1 2.028-2.5c.889-1 1.889-1.918 3.028-2.668a18.57 18.57 0 0 1 6.583-3.055 18.978 18.978 0 0 1 5.056-.667 19.963 19.963 0 0 1 14.139 5.806c.138.139.305.305.444.5h.028c.389.416.75.833 1.11 1.305A18.97 18.97 0 0 1 59.723 85c.334.722.612 1.472.834 2.25.028.111.055.195.083.306.389 1.36.639 2.777.695 4.25.055.416.083.86.083 1.305Z"/><path fill="#FFECB3" d="M55.72 93.11c0 1.14-.138 2.223-.444 3.25a14.107 14.107 0 0 1-1.222 3.167c-.083.167-.278.472-.278.472H29.11a.21.21 0 0 1-.056-.11 9.097 9.097 0 0 1-.833-1.64 12.754 12.754 0 0 1-1-4.11c-.056-.334-.056-.695-.056-1.028 0-.167 0-.362.028-.528.028-1.222.194-2.389.528-3.472.278-1 .639-1.917 1.11-2.806 0 0 .029-.028.029-.055a16.49 16.49 0 0 1 1.11-1.723 13.885 13.885 0 0 1 5.25-4.305h.029a11.154 11.154 0 0 1 2.083-.806h.028a14.089 14.089 0 0 1 4.083-.583c1.639 0 3.222.25 4.667.778.527.139 1.027.36 1.527.61h.028c2.39 1.14 4.417 2.917 5.806 5.14.278.416.528.86.75 1.333.11.194.222.417.305.611A13.863 13.863 0 0 1 55.666 92c.027.14.027.278.027.445.028.222.028.444.028.667Z"/><path stroke="#fff" stroke-linecap="round" stroke-linejoin="round" stroke-miterlimit="10" stroke-width="2" d="M65.865 15.625h-31.73c-10.313 0-18.51 8.197-18.51 18.51v31.73c0 10.313 8.197 18.51 18.51 18.51h31.73c10.313 0 18.51-8.197 18.51-18.51v-31.73c0-10.313-8.197-18.51-18.51-18.51Z"/><path fill="#fff" d="M68.51 31.49a2.644 2.644 0 1 0 0-5.288 2.644 2.644 0 0 0 0 5.289Z"/><path stroke="#fff" stroke-linecap="round" stroke-linejoin="round" stroke-miterlimit="10" stroke-width="2" d="M50 62.5c6.904 0 12.5-5.596 12.5-12.5S56.904 37.5 50 37.5 37.5 43.096 37.5 50 43.096 62.5 50 62.5Z"/></g><defs><clipPath id="a"><path fill="#fff" d="M0 0h100v100H0z"/></clipPath></defs></svg>