<svg xmlns="http://www.w3.org/2000/svg" width="100" height="100" fill="none"><g clip-path="url(#a)"><path fill="#fff" d="M7.063 48.445c1.937 5.242 6.851 8.32 13.773 8.32 1.766 0 3.57-.257 5.344-.757.289-.07 11.32-3.063 24.789-6.719-13.29 5.75-24.82 10.703-27.157 11.633l-.125.055c-3.359 1.343-7.546 3.015-11.421 3.015C5.484 63.992 4 59.523 4 57.805c0-2 .672-5.008 3.063-9.36ZM99.68 32.008a1.6 1.6 0 0 0-.39.054c-.33.079-74.157 20.086-74.157 20.086-1.422.399-2.875.618-4.297.618-6.383 0-10.68-3.063-10.68-9.75 0-2.602.813-5.735 2.656-9.414C6.306 41.242 0 50.469 0 57.805c0 4.234 3.563 10.187 12.258 10.187 4.71 0 9.383-1.89 13.039-3.351 6.164-2.47 74.281-32.047 74.281-32.047.539-.266.555-.586.102-.586Z"/></g><defs><clipPath id="a"><path fill="#fff" d="M0 0h100v100H0z"/></clipPath></defs></svg>