<svg xmlns="http://www.w3.org/2000/svg" width="100" height="100" fill="none"><g clip-path="url(#a)"><path fill="#FF0505" d="M99.68 32.008a1.6 1.6 0 0 0-.39.054c-.33.079-74.157 20.086-74.157 20.086-1.422.399-2.875.618-4.297.618-6.383 0-10.68-3.063-10.68-9.75 0-2.602.813-5.735 2.656-9.414C6.306 41.242 0 50.469 0 57.805c0 4.234 3.563 10.187 12.258 10.187 4.71 0 9.383-1.89 13.039-3.351 6.164-2.47 74.281-32.047 74.281-32.047.539-.266.555-.586.102-.586Z"/></g><defs><clipPath id="a"><path fill="#fff" d="M0 0h100v100H0z"/></clipPath></defs></svg>