<svg xmlns="http://www.w3.org/2000/svg" width="100" height="100" fill="none"><g clip-path="url(#a)"><path fill="#000" d="M99.354 12.533c-1.737-2.22-4.775-.441-6.112.334C83.725 18.475 82.32 28.35 79.004 34.02c-2.608 4.541-6.883 7.875-10.75 8.133-2.858.204-5.958-.35-9.033-1.687-7.53-3.255-11.583-7.467-12.57-8.209-2.03-1.541-17.626-16.729-30.334-17.35 0 0-1.55-3.125-1.938-3.179-.925-.104-1.875 1.88-2.566 2.088-.625.22-1.721-2.134-2.355-2.03-.637.084-1.258 2.442-2.5 3.655-.916.887-2.025.833-2.654 1.929-.216.4-.141 1.104-.387 1.75-.53 1.333-2.296 1.475-2.313 2.904 0 1.588 1.488 1.892 2.788 3 1.033.883 1.104 1.508 2.308 1.92 1.075.367 2.633-.778 4.017-.366 1.154.338 2.262.584 2.508 1.763.225 1.066 0 2.741-1.417 2.554-.466-.063-2.491-.725-4.991-.459-3.021.321-6.471 1.288-6.809 4.625-.17 1.863 2.142 4.042 4.396 3.609 1.546-.296.817-2.108 1.663-2.983 1.112-1.126 7.383 3.933 13.216 3.933 2.471 0 4.296-.625 6.113-2.521.167-.12.387-.425.646-.458.29.075.564.199.812.366 4.713 3.738 8.267 11.25 25.542 11.338 2.425.029 5.208 1.162 7.483 3.237 2 1.805 3.184 4.688 4.321 7.605 1.742 4.387 4.838 8.62 9.55 13.345.25.284 4.125 3.25 4.417 3.471.05.042.35.696.22 1.063-.083 2.875-.512 11.125 5.688 11.47 1.525.084 1.146-.962 1.146-1.708-.02-1.42-.27-2.854.47-4.333 1.055-1.992-2.19-2.954-2.12-7.317.08-3.267-2.688-2.712-4.1-5.208-.792-1.43-1.533-2.217-1.458-3.942.304-9.916-2.155-16.45-3.355-18.029-.945-1.225-1.762-1.68-.862-2.25 5.167-3.396 6.354-6.558 6.354-6.558 2.75-6.421 5.233-12.271 8.646-14.875.692-.5 2.454-1.834 3.55-2.334 3.18-1.508 4.887-2.408 5.783-3.283 1.484-1.404 2.646-4.387 1.225-6.167Z"/></g><defs><clipPath id="a"><path fill="#fff" d="M0 0h100v100H0z"/></clipPath></defs></svg>