<svg xmlns="http://www.w3.org/2000/svg" width="100" height="78" fill="none"><path fill="#fff" d="M99.354 1.533c-1.737-2.22-4.775-.441-6.112.334C83.725 7.475 82.32 17.35 79.004 23.02c-2.608 4.541-6.883 7.875-10.75 8.133-2.858.204-5.958-.35-9.033-1.687C51.69 26.212 47.638 22 46.65 21.258 44.62 19.717 29.025 4.53 16.317 3.908c0 0-1.55-3.125-1.938-3.179-.925-.104-1.875 1.88-2.566 2.088-.626.22-1.721-2.134-2.355-2.03-.637.084-1.258 2.442-2.5 3.655-.916.887-2.025.833-2.654 1.929-.216.4-.141 1.104-.387 1.75-.53 1.333-2.296 1.475-2.313 2.904 0 1.588 1.488 1.892 2.788 3 1.033.883 1.104 1.508 2.308 1.92 1.075.367 2.633-.778 4.017-.366 1.154.338 2.262.584 2.508 1.763.225 1.066 0 2.741-1.417 2.554-.466-.063-2.491-.725-4.991-.459-3.021.321-6.471 1.288-6.809 4.625-.17 1.863 2.142 4.042 4.396 3.609 1.546-.296.817-2.108 1.663-2.983 1.112-1.125 7.383 3.933 13.216 3.933 2.471 0 4.296-.625 6.113-2.521.166-.12.387-.425.646-.458.29.075.564.199.812.366 4.713 3.738 8.267 11.25 25.542 11.338 2.425.029 5.208 1.162 7.483 3.237 2 1.805 3.184 4.688 4.321 7.605 1.742 4.387 4.837 8.62 9.55 13.345.25.284 4.125 3.25 4.417 3.471.05.042.35.696.22 1.063-.083 2.875-.512 11.125 5.688 11.47 1.525.084 1.146-.962 1.146-1.708-.021-1.42-.271-2.854.47-4.333 1.055-1.992-2.191-2.954-2.12-7.317.079-3.267-2.688-2.712-4.1-5.208-.792-1.43-1.534-2.217-1.459-3.942.305-9.917-2.154-16.45-3.354-18.029-.945-1.225-1.762-1.68-.862-2.25 5.166-3.396 6.354-6.558 6.354-6.558 2.75-6.421 5.233-12.271 8.646-14.875.691-.5 2.454-1.834 3.55-2.334 3.179-1.508 4.887-2.408 5.783-3.283 1.483-1.404 2.646-4.387 1.225-6.167Z"/></svg>