<svg xmlns="http://www.w3.org/2000/svg" width="100" height="100" fill="none"><g fill-rule="evenodd" clip-path="url(#a)" clip-rule="evenodd"><path fill="#000" d="M13.622 0h72.753C93.9 0 100 6.1 100 13.622v72.753C100 93.9 93.9 100 86.378 100H13.622C6.1 100 0 93.9 0 86.378V13.622C0 6.1 6.1 0 13.622 0Z"/><path fill="#EC4040" d="M64.465 40.575A26.63 26.63 0 0 0 80 45.542V34.4a15.69 15.69 0 0 1-3.261-.342v8.77a26.656 26.656 0 0 1-15.534-4.967v22.733c0 11.373-9.225 20.592-20.602 20.592a20.514 20.514 0 0 1-11.47-3.483 20.55 20.55 0 0 0 14.73 6.194c11.378 0 20.603-9.22 20.603-20.592v-22.73Zm4.025-11.239a15.538 15.538 0 0 1-4.025-9.092v-1.433h-3.091a15.6 15.6 0 0 0 7.116 10.525ZM36.33 68.978a9.38 9.38 0 0 1-1.923-5.703c0-5.203 4.22-9.42 9.425-9.42.97 0 1.933.148 2.858.442V42.908a20.959 20.959 0 0 0-3.26-.189v8.864a9.423 9.423 0 0 0-2.862-.441c-5.205 0-9.425 4.216-9.425 9.419a9.425 9.425 0 0 0 5.186 8.417Z"/><path fill="#fff" d="M61.206 37.861a26.63 26.63 0 0 0 15.533 4.967v-8.77a15.61 15.61 0 0 1-8.247-4.725 15.592 15.592 0 0 1-7.114-10.522h-8.12v44.495c-.02 5.186-4.23 9.386-9.425 9.386a9.414 9.414 0 0 1-7.502-3.717 9.416 9.416 0 0 1-5.184-8.414c0-5.203 4.22-9.42 9.425-9.42.997 0 1.959.156 2.861.442v-8.86c-11.178.23-20.166 9.358-20.166 20.585a20.512 20.512 0 0 0 5.872 14.398 20.514 20.514 0 0 0 11.47 3.483c11.377 0 20.602-9.22 20.602-20.592l-.005-22.736Z"/><path fill="#00FDEF" d="M76.74 34.062V31.69a15.517 15.517 0 0 1-8.247-2.356 15.568 15.568 0 0 0 8.247 4.728Zm-15.364-15.25a15.24 15.24 0 0 1-.17-1.28v-1.434h-11.21v44.497c-.017 5.186-4.23 9.386-9.425 9.386a9.364 9.364 0 0 1-4.24-1.005 9.414 9.414 0 0 0 7.504 3.717c5.194 0 9.405-4.2 9.425-9.386V18.812h8.116ZM43.432 42.723v-2.525a20.918 20.918 0 0 0-2.828-.191c-11.38 0-20.603 9.219-20.603 20.591 0 7.13 3.625 13.414 9.134 17.109a20.512 20.512 0 0 1-5.873-14.398c0-11.227 8.992-20.355 20.17-20.586Z"/></g><defs><clipPath id="a"><path fill="#fff" d="M0 0h100v100H0z"/></clipPath></defs></svg>