<svg xmlns="http://www.w3.org/2000/svg" width="100" height="100" fill="none"><g clip-path="url(#a)"><path stroke="#fff" d="M13.622.5h72.753C93.624.5 99.5 6.376 99.5 13.622v72.753c0 7.249-5.876 13.125-13.122 13.125H13.622C6.376 99.5.5 93.624.5 86.378V13.622C.5 6.376 6.376.5 13.622.5Z"/><path fill="#fff" fill-rule="evenodd" d="M64.465 40.575A26.63 26.63 0 0 0 80 45.542V34.4a15.69 15.69 0 0 1-3.261-.342v8.77a26.656 26.656 0 0 1-15.534-4.967v22.733c0 11.373-9.225 20.592-20.602 20.592a20.514 20.514 0 0 1-11.47-3.483 20.55 20.55 0 0 0 14.73 6.194c11.378 0 20.603-9.22 20.603-20.592v-22.73Zm4.025-11.239a15.538 15.538 0 0 1-4.025-9.092v-1.433h-3.091a15.6 15.6 0 0 0 7.116 10.525ZM36.33 68.978a9.38 9.38 0 0 1-1.923-5.703c0-5.203 4.22-9.42 9.425-9.42.97 0 1.933.148 2.858.442V42.908a20.959 20.959 0 0 0-3.26-.189v8.864a9.423 9.423 0 0 0-2.862-.441c-5.205 0-9.425 4.216-9.425 9.419a9.425 9.425 0 0 0 5.186 8.417Z" clip-rule="evenodd"/><path fill="#fff" fill-rule="evenodd" d="M61.206 37.861a26.63 26.63 0 0 0 15.533 4.967v-8.77a15.61 15.61 0 0 1-8.247-4.725 15.592 15.592 0 0 1-7.114-10.522h-8.12v44.495c-.02 5.186-4.23 9.386-9.425 9.386a9.414 9.414 0 0 1-7.502-3.717 9.416 9.416 0 0 1-5.184-8.414c0-5.203 4.22-9.42 9.425-9.42.997 0 1.959.156 2.861.442v-8.86c-11.178.23-20.166 9.358-20.166 20.585a20.512 20.512 0 0 0 5.872 14.398 20.514 20.514 0 0 0 11.47 3.483c11.377 0 20.602-9.22 20.602-20.592l-.005-22.736Z" clip-rule="evenodd"/></g><defs><clipPath id="a"><path fill="#fff" d="M0 0h100v100H0z"/></clipPath></defs></svg>