<svg xmlns="http://www.w3.org/2000/svg" width="50" height="50" fill="none"><rect width="48" height="34" x="1" y="8" fill="#fff" rx="4"/><path fill="#121A19" d="M5 7c-2.75 0-5 2.25-5 5v26c0 2.75 2.25 5 5 5h40c2.75 0 5-2.25 5-5V12c0-2.75-2.25-5-5-5H5Zm0 2h40c1.668 0 3 1.332 3 3v26c0 1.668-1.332 3-3 3H5c-1.668 0-3-1.332-3-3V12c0-1.668 1.332-3 3-3Zm24.688 10.406c-3.102 0-4.688 1.528-4.688 3.469 0 3.512 4.063 3.04 4.063 4.844 0 .304-.235 1.031-1.938 1.031-1.707 0-2.813-.656-2.813-.656l-.53 2.375s1.105.625 3.218.625 5.031-1.617 5.031-3.969c0-2.828-4.062-3.05-4.062-4.313 0-.644.5-1.125 1.968-1.125.954 0 2.032.72 2.032.72l.5-2.438s-1.418-.563-2.782-.563Zm-13.22.219-2.687 7.938s-.183-.676-.25-1.094C11.996 23.023 9.5 21.75 9.5 21.75l2.375 9h3.25l4.5-11.125h-3.156Zm4.313 0-1.75 11.125H22l1.781-11.125h-3Zm16.032 0L31.968 30.75h2.937l.594-1.594h3.688l.312 1.594h2.688l-2.282-11.125h-3.093Zm-30.563.031s5.805 1.797 7.156 6.157l-1-5.063s-.43-1.094-1.594-1.094H6.25Zm31.688 3.188.812 4.187h-2.438l1.626-4.187Z"/></svg>