{
	"asset":{
		"generator":"Khronos glTF Blender I/O v3.6.27",
		"version":"2.0"
	},
	"scene":0,
	"scenes":[
		{
			"name":"Scene",
			"nodes":[
				0,
				1,
				2
			]
		}
	],
	"nodes":[
		{
			"mesh":0,
			"name":"Curve",
			"scale":[
				8.753479957580566,
				8.753479957580566,
				8.753479957580566
			]
		},
		{
			"mesh":1,
			"name":"Curve.001",
			"scale":[
				9.771268844604492,
				9.771268844604492,
				9.771268844604492
			]
		},
		{
			"mesh":2,
			"name":"Curve.002",
			"scale":[
				10.249200820922852,
				10.249200820922852,
				10.249200820922852
			]
		}
	],
	"materials":[
		{
			"doubleSided":true,
			"name":"SVGMat",
			"pbrMetallicRoughness":{
				"baseColorFactor":[
					1,
					1,
					1,
					1
				],
				"metallicFactor":0,
				"roughnessFactor":0.4000000059604645
			}
		},
		{
			"doubleSided":true,
			"name":"Material.002",
			"pbrMetallicRoughness":{
				"baseColorFactor":[
					0.22322681546211243,
					0.8631566166877747,
					0.8549927473068237,
					1
				],
				"metallicFactor":0,
				"roughnessFactor":0.5
			}
		}
	],
	"meshes":[
		{
			"name":"Curve",
			"primitives":[
				{
					"attributes":{
						"POSITION":0,
						"NORMAL":1,
						"TEXCOORD_0":2
					},
					"indices":3,
					"material":0
				}
			]
		},
		{
			"name":"Curve.001",
			"primitives":[
				{
					"attributes":{
						"POSITION":4,
						"NORMAL":5,
						"TEXCOORD_0":6
					},
					"indices":7,
					"material":0
				}
			]
		},
		{
			"name":"Curve.002",
			"primitives":[
				{
					"attributes":{
						"POSITION":8,
						"NORMAL":9,
						"TEXCOORD_0":10
					},
					"indices":11,
					"material":1
				}
			]
		}
	],
	"accessors":[
		{
			"bufferView":0,
			"componentType":5126,
			"count":204,
			"max":[
				0.009313523769378662,
				0,
				-0.004373610019683838
			],
			"min":[
				0.00366896390914917,
				0,
				-0.010016977787017822
			],
			"type":"VEC3"
		},
		{
			"bufferView":1,
			"componentType":5126,
			"count":204,
			"type":"VEC3"
		},
		{
			"bufferView":2,
			"componentType":5126,
			"count":204,
			"type":"VEC2"
		},
		{
			"bufferView":3,
			"componentType":5123,
			"count":606,
			"type":"SCALAR"
		},
		{
			"bufferView":4,
			"componentType":5126,
			"count":5692,
			"max":[
				0.06114215776324272,
				0,
				-0.004046238958835602
			],
			"min":[
				0.01244394015520811,
				0,
				-0.009452641010284424
			],
			"type":"VEC3"
		},
		{
			"bufferView":5,
			"componentType":5126,
			"count":5692,
			"type":"VEC3"
		},
		{
			"bufferView":6,
			"componentType":5126,
			"count":5692,
			"type":"VEC2"
		},
		{
			"bufferView":7,
			"componentType":5123,
			"count":17088,
			"type":"SCALAR"
		},
		{
			"bufferView":8,
			"componentType":5126,
			"count":106,
			"max":[
				0.06477132439613342,
				0.001000000280328095,
				-0.00028216809732839465
			],
			"min":[
				0.00014111388009041548,
				-0.001000000280328095,
				-0.014108419418334961
			],
			"type":"VEC3"
		},
		{
			"bufferView":9,
			"componentType":5126,
			"count":106,
			"type":"VEC3"
		},
		{
			"bufferView":10,
			"componentType":5126,
			"count":106,
			"type":"VEC2"
		},
		{
			"bufferView":11,
			"componentType":5123,
			"count":312,
			"type":"SCALAR"
		}
	],
	"bufferViews":[
		{
			"buffer":0,
			"byteLength":2448,
			"byteOffset":0,
			"target":34962
		},
		{
			"buffer":0,
			"byteLength":2448,
			"byteOffset":2448,
			"target":34962
		},
		{
			"buffer":0,
			"byteLength":1632,
			"byteOffset":4896,
			"target":34962
		},
		{
			"buffer":0,
			"byteLength":1212,
			"byteOffset":6528,
			"target":34963
		},
		{
			"buffer":0,
			"byteLength":68304,
			"byteOffset":7740,
			"target":34962
		},
		{
			"buffer":0,
			"byteLength":68304,
			"byteOffset":76044,
			"target":34962
		},
		{
			"buffer":0,
			"byteLength":45536,
			"byteOffset":144348,
			"target":34962
		},
		{
			"buffer":0,
			"byteLength":34176,
			"byteOffset":189884,
			"target":34963
		},
		{
			"buffer":0,
			"byteLength":1272,
			"byteOffset":224060,
			"target":34962
		},
		{
			"buffer":0,
			"byteLength":1272,
			"byteOffset":225332,
			"target":34962
		},
		{
			"buffer":0,
			"byteLength":848,
			"byteOffset":226604,
			"target":34962
		},
		{
			"buffer":0,
			"byteLength":624,
			"byteOffset":227452,
			"target":34963
		}
	],
	"buffers":[
		{
			"byteLength":228076,
			"uri":"data:application/octet-stream;base64,"
		}
	]
}
