<svg xmlns="http://www.w3.org/2000/svg" width="492" height="191" fill="none"><path fill="#180B3D" d="M166.503 74c3.719 0 6.938.62 9.657 1.86 2.759 1.239 4.878 2.998 6.357 5.277 1.48 2.28 2.22 4.978 2.22 8.097 0 3.08-.74 5.778-2.22 8.097-1.479 2.28-3.598 4.039-6.357 5.278-2.719 1.2-5.938 1.8-9.657 1.8h-8.457v11.576h-9.716V74h18.173Zm-.539 22.492c2.918 0 5.138-.62 6.657-1.86 1.52-1.28 2.279-3.079 2.279-5.398 0-2.359-.759-4.158-2.279-5.398-1.519-1.28-3.739-1.919-6.657-1.919h-7.918v14.575h7.918ZM196.952 87.975c1.119-1.56 2.619-2.74 4.498-3.539 1.919-.8 4.118-1.2 6.597-1.2v8.637c-1.039-.08-1.739-.12-2.099-.12-2.679 0-4.778.76-6.297 2.28-1.52 1.48-2.28 3.718-2.28 6.717v15.235h-9.356V83.716h8.937v4.259ZM225.673 116.464c-3.398 0-6.457-.699-9.176-2.099-2.679-1.439-4.778-3.419-6.298-5.938-1.519-2.519-2.279-5.378-2.279-8.577 0-3.198.76-6.057 2.279-8.576 1.52-2.52 3.619-4.479 6.298-5.878 2.719-1.44 5.778-2.16 9.176-2.16 3.399 0 6.438.72 9.117 2.16 2.679 1.4 4.778 3.359 6.298 5.878 1.519 2.519 2.279 5.378 2.279 8.576 0 3.199-.76 6.058-2.279 8.577-1.52 2.519-3.619 4.499-6.298 5.938-2.679 1.4-5.718 2.099-9.117 2.099Zm0-7.677c2.4 0 4.359-.8 5.878-2.399 1.56-1.639 2.339-3.819 2.339-6.538 0-2.718-.779-4.878-2.339-6.477-1.519-1.64-3.478-2.46-5.878-2.46-2.399 0-4.378.82-5.937 2.46-1.56 1.6-2.34 3.758-2.34 6.477 0 2.719.78 4.899 2.34 6.538 1.559 1.599 3.538 2.399 5.937 2.399ZM285.788 74v41.985h-7.977l-20.933-25.491v25.491h-9.596V74h8.037l20.872 25.49V74h9.597ZM305.078 83.237c4.998 0 8.836 1.2 11.515 3.598 2.679 2.36 4.019 5.938 4.019 10.736v18.414h-8.757v-4.019c-1.759 2.999-5.038 4.498-9.836 4.498-2.479 0-4.639-.42-6.478-1.259-1.799-.84-3.179-1.999-4.138-3.479-.96-1.479-1.44-3.159-1.44-5.038 0-2.999 1.12-5.358 3.359-7.077 2.279-1.72 5.778-2.58 10.496-2.58h7.437c0-2.039-.619-3.598-1.859-4.678-1.24-1.12-3.099-1.68-5.578-1.68-1.719 0-3.419.28-5.098.84-1.639.52-3.039 1.24-4.199 2.16l-3.358-6.538c1.759-1.24 3.858-2.199 6.297-2.879a28.683 28.683 0 0 1 7.618-1.02Zm-.72 26.93c1.599 0 3.019-.36 4.258-1.08 1.24-.76 2.119-1.859 2.639-3.299v-3.299h-6.417c-3.839 0-5.758 1.26-5.758 3.779 0 1.2.46 2.159 1.379 2.879.96.68 2.259 1.02 3.899 1.02ZM346.893 114.425c-.919.68-2.059 1.2-3.418 1.56-1.32.319-2.719.479-4.199.479-3.838 0-6.817-.979-8.936-2.939-2.08-1.959-3.119-4.838-3.119-8.636V91.634h-4.978v-7.198h4.978V76.58h9.356v7.857h8.037v7.197h-8.037v13.136c0 1.359.34 2.419 1.02 3.178.72.72 1.719 1.08 2.999 1.08 1.479 0 2.739-.4 3.778-1.199l2.519 6.597ZM381.655 83.716v32.269h-8.877v-3.839a12.741 12.741 0 0 1-4.438 3.239c-1.72.719-3.579 1.079-5.578 1.079-4.239 0-7.597-1.219-10.077-3.658-2.479-2.439-3.718-6.058-3.718-10.856V83.716h9.356v16.854c0 5.198 2.18 7.797 6.538 7.797 2.239 0 4.039-.719 5.398-2.159 1.359-1.479 2.039-3.659 2.039-6.537V83.716h9.357ZM396.261 87.975c1.119-1.56 2.619-2.74 4.498-3.539 1.919-.8 4.119-1.2 6.598-1.2v8.637c-1.04-.08-1.74-.12-2.099-.12-2.68 0-4.779.76-6.298 2.28-1.52 1.48-2.279 3.718-2.279 6.717v15.235h-9.357V83.716h8.937v4.259ZM441.237 99.97c0 .12-.06.96-.18 2.519h-24.411c.44 2 1.479 3.579 3.119 4.739 1.639 1.159 3.678 1.739 6.117 1.739 1.68 0 3.159-.24 4.439-.72 1.319-.519 2.539-1.319 3.658-2.399l4.979 5.398c-3.039 3.479-7.478 5.218-13.316 5.218-3.638 0-6.857-.699-9.656-2.099-2.799-1.439-4.958-3.419-6.478-5.938-1.519-2.519-2.279-5.378-2.279-8.577 0-3.158.74-5.997 2.219-8.516 1.52-2.56 3.579-4.539 6.178-5.938 2.639-1.44 5.578-2.16 8.817-2.16 3.159 0 6.018.68 8.577 2.04 2.559 1.36 4.558 3.319 5.998 5.878 1.479 2.519 2.219 5.458 2.219 8.816Zm-16.734-9.656c-2.119 0-3.899.6-5.338 1.8-1.44 1.199-2.319 2.838-2.639 4.917h15.894c-.32-2.039-1.2-3.658-2.639-4.858-1.44-1.24-3.199-1.859-5.278-1.859Z"/><path fill="#22B24B" fill-rule="evenodd" d="M95.045 50.618a4.602 4.602 0 0 0-4.609 0C80.31 56.476 73.481 67.436 73.481 79.996c0 1.79.139 3.547.406 5.262-6.97-2.367-14.518-1.505-20.683 2.047a4.602 4.602 0 0 0-2.305 3.991c.008 8.689 4.521 17.157 12.605 21.824a25.079 25.079 0 0 0 12.564 3.38 17.644 17.644 0 0 0-1.003 5.884c0 9.762 7.913 17.675 17.675 17.675s17.675-7.913 17.675-17.675c0-2.068-.355-4.052-1.007-5.896a25.082 25.082 0 0 0 11.783-3.368c8.084-4.667 12.597-13.135 12.604-21.824a4.6 4.6 0 0 0-2.304-3.99c-5.922-3.413-13.12-4.343-19.856-2.312.241-1.631.365-3.3.365-4.998 0-12.56-6.829-23.52-16.955-29.377Zm-12.36 29.378c0-8.157 3.95-15.395 10.055-19.9 6.107 4.505 10.056 11.743 10.056 19.9 0 8.156-3.95 15.394-10.056 19.9-6.106-4.506-10.055-11.744-10.055-19.9Zm28.206 15.284a15.96 15.96 0 0 1 13.451-1.186 15.96 15.96 0 0 1-7.753 11.055 15.962 15.962 0 0 1-13.451 1.187 15.959 15.959 0 0 1 7.753-11.056Zm-50.538-1.187a15.96 15.96 0 0 1 13.45 1.187 15.96 15.96 0 0 1 7.754 11.055 15.958 15.958 0 0 1-13.45-1.186 15.96 15.96 0 0 1-7.754-11.056Zm23.916 28.291a8.471 8.471 0 1 1 16.942 0 8.471 8.471 0 0 1-16.942 0Z" clip-rule="evenodd"/></svg>