<svg xmlns="http://www.w3.org/2000/svg" width="474" height="90" fill="none"><path fill="#000" d="M202.389 88.235 227.599 0h23.949l25.084 88.235h-13.991l-5.799-20.798h-34.537l-5.799 20.798h-14.117Zm23.319-33.403h27.731L240.582 8.445h-2.017l-12.857 46.387ZM312.788 89.37c-4.706 0-8.907-1.05-12.605-3.151-3.697-2.101-6.597-5.084-8.697-8.95-2.101-3.866-3.152-8.488-3.152-13.866v-37.31h12.984V62.52c0 5.378 1.344 9.37 4.033 11.975 2.689 2.52 6.429 3.781 11.219 3.781 5.294 0 9.537-1.764 12.731-5.294 3.277-3.613 4.916-8.781 4.916-15.504V26.092H347.2v62.143h-12.731v-9.327h-2.017c-1.176 2.52-3.277 4.915-6.303 7.184-3.025 2.185-7.478 3.278-13.361 3.278ZM366.392 88.235V26.092h12.731v7.311h2.017c1.008-2.605 2.605-4.495 4.79-5.672 2.269-1.26 5.042-1.89 8.319-1.89h7.437v11.722h-7.941c-4.202 0-7.647 1.176-10.336 3.53-2.689 2.268-4.034 5.798-4.034 10.588v36.554h-12.983ZM432.701 90c-4.454 0-8.446-.756-11.975-2.269-3.446-1.512-6.219-3.74-8.32-6.68-2.016-2.942-3.025-6.513-3.025-10.715 0-4.286 1.009-7.815 3.025-10.588 2.101-2.857 4.916-5 8.446-6.429 3.613-1.428 7.689-2.143 12.227-2.143h18.907v-4.033c0-3.614-1.092-6.513-3.277-8.698-2.185-2.184-5.546-3.277-10.084-3.277-4.454 0-7.857 1.05-10.21 3.151-2.353 2.101-3.908 4.832-4.664 8.194l-12.101-3.908a26.167 26.167 0 0 1 4.79-9.076c2.269-2.773 5.252-5 8.95-6.68 3.697-1.68 8.151-2.521 13.361-2.521 8.067 0 14.412 2.059 19.034 6.176 4.621 4.118 6.932 9.958 6.932 17.521v25.588c0 2.522 1.177 3.782 3.53 3.782h5.294v10.84h-9.706c-2.941 0-5.336-.756-7.185-2.269-1.849-1.512-2.773-3.571-2.773-6.176v-.378h-1.891c-.672 1.26-1.68 2.73-3.025 4.411-1.344 1.681-3.319 3.152-5.924 4.412-2.605 1.177-6.051 1.765-10.336 1.765Zm1.89-10.714c5.21 0 9.412-1.47 12.605-4.412 3.194-3.025 4.79-7.143 4.79-12.353v-1.26h-18.151c-3.445 0-6.219.756-8.319 2.268-2.101 1.429-3.152 3.572-3.152 6.429s1.093 5.126 3.278 6.807c2.185 1.68 5.168 2.52 8.949 2.52Z"/><mask id="a" width="179" height="90" x="0" y="0" maskUnits="userSpaceOnUse" style="mask-type:alpha"><path fill="#C4C4C4" d="M0 89.205a89.205 89.205 0 0 1 178.41 0H0Z"/></mask><g mask="url(#a)"><circle cx="167.337" cy="82.312" r="66.497" fill="url(#b)"/><circle cx="40.358" cy="59.284" r="61.393" fill="url(#c)"/><ellipse cx="94.053" cy="72.721" fill="url(#d)" rx="22.301" ry="43.633"/><g filter="url(#e)"><path fill="#fff" fill-opacity=".2" d="M-37.241-62.069h238.966v266.897H-37.241z"/></g></g><defs><linearGradient id="b" x1="167.337" x2="167.337" y1="15.815" y2="148.809" gradientUnits="userSpaceOnUse"><stop stop-color="#96DDFB"/><stop offset="1" stop-color="#5F82F8"/></linearGradient><linearGradient id="c" x1="40.358" x2="40.358" y1="-2.11" y2="120.677" gradientUnits="userSpaceOnUse"><stop stop-color="#FB5397"/><stop offset="1" stop-color="#FDB45F"/></linearGradient><linearGradient id="d" x1="94.053" x2="94.053" y1="29.088" y2="116.354" gradientUnits="userSpaceOnUse"><stop stop-color="#FDB45F"/><stop offset="1" stop-color="#FDB45F"/></linearGradient><filter id="e" width="346.407" height="374.338" x="-90.962" y="-115.79" color-interpolation-filters="sRGB" filterUnits="userSpaceOnUse"><feFlood flood-opacity="0" result="BackgroundImageFix"/><feGaussianBlur in="BackgroundImageFix" stdDeviation="26.86"/><feComposite in2="SourceAlpha" operator="in" result="effect1_backgroundBlur_1109_607"/><feBlend in="SourceGraphic" in2="effect1_backgroundBlur_1109_607" result="shape"/></filter></defs></svg>