<svg xmlns="http://www.w3.org/2000/svg" xml:space="preserve" style="enable-background:new 0 0 100 100" viewBox="0 0 100 100"><path d="M15.398 40.469 50 82l35-41.531zM29.963 20.893 16.255 40.362h12.693zM70.383 20.893 84.09 40.362H71.398z" style="fill:#f9e65c"/><path d="m29.518 40.386 20.563-22.002 20.934 22.382z" style="fill:#fef6aa"/><path d="m70 20.893 1.015 19.469-21.089-22.085z" style="fill:#f9e65c"/><path d="m29.963 20.893-1.015 19.469 21.089-22.085z" style="fill:#f9e65c"/><path d="m70 21-20-3-20 3-15 20 35 41 35-41.531z" style="fill:none;stroke:#1f212b;stroke-width:2;stroke-linecap:round;stroke-linejoin:round;stroke-miterlimit:10"/><path d="M15 40.469h70M30 21l-1.015 19.469L50.298 18.17" style="fill:none;stroke:#1f212b;stroke-linecap:round;stroke-linejoin:round;stroke-miterlimit:10"/><path d="M28.985 40.469 50 82" style="fill:#eddc67;stroke:#1f212b;stroke-linecap:round;stroke-linejoin:round;stroke-miterlimit:10"/><path d="m70 21 1.015 19.469-21.089-22.085M71.015 40.469 50 82" style="fill:none;stroke:#1f212b;stroke-linecap:round;stroke-linejoin:round;stroke-miterlimit:10"/></svg>