<svg xmlns="http://www.w3.org/2000/svg" width="136" height="90" fill="none"><path fill="#57504A" d="M0 58.234C0 40.691 14.222 26.47 31.765 26.47S63.529 40.69 63.529 58.234v17.648c0 7.796-6.32 14.117-14.117 14.117H31.765C14.222 90 0 75.778 0 58.234ZM71.467 25.052v-9.17C71.467 7.111 78.577 0 87.349 0c8.772 0 15.883 7.11 15.883 15.882v2.139a9.782 9.782 0 0 0 6.664 9.272l4.512 1.518a30.223 30.223 0 0 1 20.588 28.646v.97c0 17.437-14.135 31.573-31.573 31.573H85.584c-7.797 0-14.117-6.32-14.117-14.118v-50.83ZM130.107 11.454c-1.08 0-2.061-.246-2.945-.74a5.77 5.77 0 0 1-2.061-2.071c-.491-.869-.736-1.845-.736-2.93 0-1.086.255-2.053.765-2.901A5.55 5.55 0 0 1 127.192.77c.863-.513 1.835-.77 2.915-.77 1.079 0 2.051.257 2.915.77a5.33 5.33 0 0 1 2.032 2.042c.51.848.765 1.815.765 2.9 0 1.086-.255 2.062-.765 2.93a5.547 5.547 0 0 1-2.032 2.073c-.844.493-1.816.74-2.915.74Zm0-.828c.922 0 1.747-.207 2.473-.622a4.572 4.572 0 0 0 1.738-1.776c.431-.75.647-1.588.647-2.516 0-.927-.216-1.756-.647-2.486a4.37 4.37 0 0 0-1.738-1.746c-.726-.434-1.551-.651-2.473-.651-.923 0-1.757.217-2.503.65a4.623 4.623 0 0 0-1.738 1.747c-.412.73-.618 1.56-.618 2.486 0 .928.206 1.767.618 2.516a4.849 4.849 0 0 0 1.738 1.776c.746.415 1.58.622 2.503.622Zm-1.208-1.776h-.912V2.457h2.296c.687 0 1.237.177 1.649.532.413.336.619.81.619 1.421 0 .415-.108.78-.324 1.095-.216.316-.55.553-1.001.71l1.443 2.635h-1.031l-1.296-2.427h-1.443V8.85Zm2.68-4.41c0-.75-.442-1.125-1.325-1.125h-1.355v2.25h1.355c.412 0 .736-.09.972-.267.235-.197.353-.483.353-.858Z"/></svg>