<svg xmlns="http://www.w3.org/2000/svg" width="451" height="178" fill="none"><path fill="#FCBB01" fill-rule="evenodd" d="M63.173 69.503c5.885-7.916 15.31-13.045 25.931-13.045 10.685 0 20.157 5.19 26.035 13.185-.25.257-.478.524-.684.79-1.077 1.394-1.887 3.19-2.536 5.014-1.307 3.668-2.304 8.46-3.227 12.946l-.082.404c-.921 4.478-1.777 8.643-2.812 11.735-.465 1.389-.906 2.371-1.297 3-.408-.634-.871-1.628-1.361-3.037-1.107-3.18-2.038-7.507-3.025-12.126l-.032-.151c-.948-4.438-1.954-9.145-3.209-12.749-.63-1.81-1.403-3.588-2.415-4.97-.992-1.355-2.645-2.885-5.06-2.885-2.402 0-4.062 1.513-5.069 2.854-1.03 1.372-1.834 3.143-2.497 4.954-1.333 3.647-2.423 8.418-3.438 12.91l-.104.465c-1.005 4.45-1.944 8.611-3.01 11.709-.407 1.183-.791 2.083-1.139 2.726-.34-.64-.714-1.534-1.11-2.707-1.022-3.032-1.918-7.076-2.88-11.42l-.169-.76c-.997-4.496-2.078-9.275-3.43-12.934-.673-1.818-1.494-3.597-2.558-4.976a9.19 9.19 0 0 0-.822-.932Zm-3.562 6.078c.28.554.577 1.24.884 2.07 1.17 3.166 2.162 7.487 3.183 12.092l.199.897c.93 4.202 1.897 8.572 3.036 11.949.606 1.796 1.338 3.555 2.279 4.922.89 1.293 2.486 2.963 4.94 2.963 2.449 0 4.049-1.662 4.945-2.949.95-1.364 1.693-3.121 2.311-4.918 1.185-3.444 2.194-7.917 3.16-12.197l.147-.655c1.04-4.608 2.042-8.937 3.204-12.115.538-1.473 1.042-2.499 1.481-3.135.416.63.891 1.64 1.395 3.087 1.107 3.181 2.037 7.507 3.024 12.127l.033.15c.948 4.438 1.954 9.146 3.208 12.749.63 1.811 1.404 3.589 2.415 4.97.993 1.356 2.645 2.886 5.061 2.886 2.429 0 4.075-1.544 5.056-2.912.996-1.388 1.745-3.172 2.35-4.98 1.163-3.473 2.088-7.979 2.969-12.265l.127-.623c.949-4.614 1.86-8.923 2.985-12.08.244-.687.484-1.272.713-1.764a32.178 32.178 0 0 1 2.68 12.9c0 17.834-14.457 32.292-32.291 32.292-17.835 0-32.292-14.458-32.292-32.292 0-4.69 1-9.147 2.798-13.169ZM89.105 50c-21.401 0-38.75 17.349-38.75 38.75s17.349 38.75 38.75 38.75 38.749-17.349 38.749-38.75S110.506 50 89.104 50Zm.733 23.968.005-.004s-.008.004-.023.016a.216.216 0 0 0 .018-.012Zm-.888 0a.1.1 0 0 1-.022-.016s.007.004.022.017Zm15.075 30.177s.007-.007.021-.016a.09.09 0 0 1-.021.016Zm.939-.026a.105.105 0 0 1 .023.016.09.09 0 0 1-.023-.016Zm-31.493.084c0-.001.01-.01.028-.023a.146.146 0 0 1-.028.023Zm1.308-.017a.133.133 0 0 1 .028.023c0 .001-.01-.005-.028-.023Z" clip-rule="evenodd"/><path fill="#242A31" d="m149.251 111.691-9.397-32.143h8.231l5.573 23.135 6.48-23.135h9.202l6.481 23.135 5.638-23.135h8.23l-9.461 32.143h-8.619l-6.87-24.043-6.869 24.043h-8.619ZM201.766 112.469c-2.765 0-5.033-.433-6.804-1.297-1.771-.907-3.089-2.095-3.953-3.564-.864-1.469-1.296-3.089-1.296-4.86 0-2.981 1.166-5.4 3.499-7.258 2.333-1.858 5.833-2.787 10.499-2.787h8.165v-.778c0-2.203-.627-3.823-1.879-4.86-1.253-1.037-2.809-1.555-4.666-1.555-1.685 0-3.154.41-4.407 1.231-1.253.778-2.031 1.944-2.333 3.5h-8.101c.217-2.333.994-4.364 2.333-6.092 1.383-1.728 3.154-3.046 5.314-3.953 2.161-.95 4.58-1.426 7.258-1.426 4.58 0 8.187 1.145 10.823 3.435 2.635 2.29 3.953 5.53 3.953 9.72v19.766h-7.064l-.777-5.184c-.951 1.728-2.29 3.153-4.018 4.277-1.685 1.123-3.867 1.685-6.546 1.685Zm1.88-6.481c2.376 0 4.212-.778 5.508-2.333 1.339-1.555 2.182-3.478 2.528-5.767h-7.064c-2.204 0-3.78.41-4.731 1.23-.95.779-1.426 1.751-1.426 2.917 0 1.253.476 2.225 1.426 2.916.951.691 2.203 1.037 3.759 1.037ZM233.229 111.691l-11.794-32.143h8.683l8.166 24.302 8.165-24.302h8.684l-11.859 32.143h-10.045ZM271.808 112.469c-3.24 0-6.113-.692-8.619-2.074-2.505-1.383-4.471-3.327-5.897-5.833-1.426-2.505-2.138-5.4-2.138-8.683 0-3.327.691-6.286 2.073-8.879 1.426-2.592 3.37-4.6 5.833-6.026 2.505-1.47 5.443-2.204 8.813-2.204 3.154 0 5.941.692 8.36 2.074 2.419 1.383 4.299 3.283 5.638 5.703 1.382 2.376 2.074 5.033 2.074 7.97 0 .476-.022.973-.065 1.491 0 .519-.022 1.059-.065 1.62h-24.431c.173 2.506 1.037 4.472 2.592 5.898 1.598 1.425 3.521 2.138 5.768 2.138 1.684 0 3.089-.367 4.212-1.102 1.166-.777 2.03-1.771 2.592-2.981h8.425c-.605 2.031-1.621 3.889-3.046 5.574-1.383 1.641-3.111 2.937-5.185 3.888-2.03.95-4.342 1.426-6.934 1.426Zm.065-26.96c-2.03 0-3.823.584-5.379 1.75-1.555 1.124-2.549 2.852-2.981 5.185h16.007c-.13-2.117-.907-3.802-2.333-5.055-1.426-1.253-3.197-1.88-5.314-1.88ZM292.329 111.691v-46.66h8.295v46.66h-8.295ZM322.125 112.469c-3.24 0-6.113-.692-8.619-2.074-2.505-1.383-4.471-3.327-5.897-5.833-1.426-2.505-2.138-5.4-2.138-8.683 0-3.327.691-6.286 2.073-8.879 1.426-2.592 3.37-4.6 5.833-6.026 2.506-1.47 5.443-2.204 8.813-2.204 3.154 0 5.941.692 8.36 2.074 2.419 1.383 4.299 3.283 5.638 5.703 1.382 2.376 2.074 5.033 2.074 7.97 0 .476-.022.973-.065 1.491 0 .519-.022 1.059-.065 1.62h-24.431c.173 2.506 1.037 4.472 2.592 5.898 1.598 1.425 3.521 2.138 5.768 2.138 1.684 0 3.089-.367 4.212-1.102 1.166-.777 2.03-1.771 2.592-2.981h8.425c-.605 2.031-1.621 3.889-3.046 5.574-1.383 1.641-3.111 2.937-5.185 3.888-2.03.95-4.341 1.426-6.934 1.426Zm.065-26.96c-2.03 0-3.823.584-5.379 1.75-1.555 1.124-2.549 2.852-2.981 5.185h16.007c-.13-2.117-.907-3.802-2.333-5.055-1.426-1.253-3.197-1.88-5.314-1.88ZM355.931 112.469c-2.851 0-5.357-.454-7.517-1.361-2.161-.951-3.889-2.247-5.185-3.889-1.296-1.641-2.073-3.542-2.333-5.702h8.36c.259 1.252.951 2.333 2.074 3.24 1.166.864 2.657 1.296 4.471 1.296 1.815 0 3.133-.367 3.953-1.102.864-.734 1.296-1.577 1.296-2.527 0-1.383-.604-2.312-1.814-2.787-1.21-.518-2.895-1.015-5.055-1.49a55.362 55.362 0 0 1-4.212-1.102 21.634 21.634 0 0 1-3.953-1.62c-1.167-.691-2.117-1.555-2.852-2.592-.734-1.08-1.101-2.398-1.101-3.953 0-2.852 1.123-5.25 3.37-7.194 2.289-1.944 5.486-2.916 9.591-2.916 3.802 0 6.826.886 9.072 2.657 2.29 1.772 3.651 4.212 4.083 7.323h-7.841c-.476-2.376-2.269-3.564-5.379-3.564-1.555 0-2.765.302-3.629.907-.821.605-1.231 1.361-1.231 2.268 0 .95.626 1.707 1.879 2.268 1.253.562 2.916 1.08 4.99 1.556 2.246.518 4.298 1.101 6.156 1.75 1.901.604 3.413 1.533 4.537 2.786 1.123 1.21 1.684 2.96 1.684 5.249.044 1.988-.475 3.78-1.555 5.379-1.08 1.598-2.635 2.851-4.666 3.759-2.03.907-4.428 1.361-7.193 1.361ZM387.386 112.469c-2.851 0-5.357-.454-7.517-1.361-2.16-.951-3.888-2.247-5.184-3.889-1.296-1.641-2.074-3.542-2.333-5.702h8.36c.259 1.252.95 2.333 2.073 3.24 1.167.864 2.657 1.296 4.472 1.296 1.814 0 3.132-.367 3.953-1.102.864-.734 1.296-1.577 1.296-2.527 0-1.383-.605-2.312-1.815-2.787-1.209-.518-2.894-1.015-5.054-1.49a55.262 55.262 0 0 1-4.213-1.102 21.663 21.663 0 0 1-3.953-1.62c-1.166-.691-2.117-1.555-2.851-2.592-.735-1.08-1.102-2.398-1.102-3.953 0-2.852 1.124-5.25 3.37-7.194 2.29-1.944 5.487-2.916 9.591-2.916 3.802 0 6.826.886 9.073 2.657 2.289 1.772 3.65 4.212 4.082 7.323h-7.841c-.475-2.376-2.268-3.564-5.379-3.564-1.555 0-2.765.302-3.629.907-.821.605-1.231 1.361-1.231 2.268 0 .95.626 1.707 1.879 2.268 1.253.562 2.916 1.08 4.99 1.556 2.247.518 4.299 1.101 6.157 1.75 1.901.604 3.413 1.533 4.536 2.786 1.123 1.21 1.685 2.96 1.685 5.249.043 1.988-.475 3.78-1.555 5.379-1.081 1.598-2.636 2.851-4.666 3.759-2.031.907-4.429 1.361-7.194 1.361Z"/></svg>