<svg xmlns="http://www.w3.org/2000/svg" width="32" height="22" fill="none"><path stroke="#fff" d="M.5.5h31v21H.5z"/><path stroke="#fff" d="M30.819.5 16 15.782 1.181.5H30.82Z"/><path fill="#fff" d="m.833 21.127 10.703-10.339.744.819L1.577 21.946zM20.225 10.68l10.76 10.274-.735.82-10.76-10.275z"/><path stroke="#fff" d="m16.607 7.441.028-.171.116-.723-.186-.262-.072-.101a.94.94 0 0 1 .006.101c0 .263-.077.607-.233 1.033m.341.123-1.115-.977m1.115.977-.341-.123m.341.123-.341-.123m0 0c-.181.503-.374.755-.579.755-.305 0-.458-.195-.458-.585 0-.303.088-.644.263-1.024m0 0c.205-.449.438-.673.7-.673h.015a.427.427 0 0 0-.015-.015l-.004-.004a.204.204 0 0 0-.024-.02.902.902 0 0 0-.179-.017c-.239 0-.484.11-.74.464a2.129 2.129 0 0 0-.077.115l.324.15Zm1.253-.928a.789.789 0 0 1 .136.206l.02-.128.008-.042v-.003l.044.008.066.01-.01-.01m-.264-.04.058 1.76c.056-.17.101-.333.135-.488l.063.089.174-1.246a.509.509 0 0 1 .006-.037l.222.034-.222-.036.002-.005.003-.012a.14.14 0 0 1-.008.017l-.156-.025h-.003l-.01-.011m-.264-.04.133-.095m-.133.094.133-.094m.13.135-.13-.135m.13.135-.13-.135m0 0-.107-.111c.043-.042.127-.063.25-.063l.049.001.017.024-.065.047-.144.102Zm.144.148.155.024-.15.14c-.002 0-.004-.002-.005-.003a.261.261 0 0 1-.111-.16c-.003-.009-.003-.014-.003-.014v-.005l.027.005.087.013Zm-.777-.333a1.081 1.081 0 0 0-.012.035l-1.55 2.898a1.641 1.641 0 0 1-.289-.963c0-.468.149-.908.446-1.32.322-.448.705-.672 1.145-.672.1 0 .187.007.26.022Z"/></svg>