<svg xmlns="http://www.w3.org/2000/svg" width="50" height="50" fill="none"><path fill="#FF9800" d="M34.5 9c-2.035 0-4.051.414-5.932 1.218a15.48 15.48 0 0 0-5.028 3.468 16.043 16.043 0 0 0-3.36 5.191A16.448 16.448 0 0 0 19 25c0 2.101.4 4.182 1.18 6.123a16.043 16.043 0 0 0 3.36 5.19 15.48 15.48 0 0 0 5.028 3.47A15.08 15.08 0 0 0 34.5 41a15.08 15.08 0 0 0 5.932-1.218 15.48 15.48 0 0 0 5.028-3.468 16.043 16.043 0 0 0 3.36-5.191A16.448 16.448 0 0 0 50 25c0-2.101-.4-4.182-1.18-6.123a16.043 16.043 0 0 0-3.36-5.19 15.48 15.48 0 0 0-5.028-3.47A15.081 15.081 0 0 0 34.5 9Z"/><path fill="#D50000" d="M15.5 9c-2.036 0-4.051.414-5.932 1.218a15.478 15.478 0 0 0-5.028 3.468 16.044 16.044 0 0 0-3.36 5.191A16.449 16.449 0 0 0 0 25c0 2.101.4 4.182 1.18 6.123a16.044 16.044 0 0 0 3.36 5.19 15.478 15.478 0 0 0 5.028 3.47A15.08 15.08 0 0 0 15.5 41a15.08 15.08 0 0 0 5.932-1.218 15.48 15.48 0 0 0 5.028-3.468 16.043 16.043 0 0 0 3.36-5.191A16.448 16.448 0 0 0 31 25c0-2.101-.4-4.182-1.18-6.123a16.043 16.043 0 0 0-3.36-5.19 15.48 15.48 0 0 0-5.028-3.47A15.081 15.081 0 0 0 15.5 9Z"/><path fill="#FF3D00" d="M19 25c0 4.97 2.178 9.355 5.5 12 3.322-2.645 5.5-7.03 5.5-12s-2.178-9.355-5.5-12c-3.322 2.645-5.5 7.03-5.5 12Z"/></svg>