<svg xmlns="http://www.w3.org/2000/svg" width="32" height="32" fill="none"><rect width="32" height="32" fill="url(#a)" rx="6"/><path fill="#fff" d="M25.233 21.828 21.4 19.29a1.496 1.496 0 0 0-1.526-.014l-1.644.959a.88.88 0 0 1-.603.12.903.903 0 0 1-.378-.167 26.889 26.889 0 0 1-3.084-2.664 26.742 26.742 0 0 1-2.664-3.084c-.008-.011-.127-.16-.167-.378a.884.884 0 0 1 .12-.603l.959-1.644a1.495 1.495 0 0 0-.015-1.526L9.863 6.456a1.015 1.015 0 0 0-1.425-.276s-1.201.822-1.598 1.102C6.205 7.729 6 8.409 6 9.356c-.002 1.334 1.147 5.51 5.985 10.349 4.84 4.839 9.015 5.987 10.349 5.985.947 0 1.627-.206 2.074-.84.28-.397 1.101-1.598 1.101-1.598.325-.468.2-1.11-.276-1.424Z"/><defs><linearGradient id="a" x1="16" x2="16" y1="0" y2="32" gradientUnits="userSpaceOnUse"><stop stop-color="#62FF3A"/><stop offset="1" stop-color="#18EA18" stop-opacity=".7"/></linearGradient></defs></svg>