<svg xmlns="http://www.w3.org/2000/svg" width="32" height="32" fill="none"><g stroke="#fff"><rect width="31" height="31" x=".5" y=".5" rx="5.5"/><path d="m24.958 22.245-3.825-2.53a.996.996 0 0 0-1.008-.005l-.002.001-.023.013-.18.105-1.438.839a1.378 1.378 0 0 1-.945.18l7.42 1.397Zm0 0c.242.16.305.486.14.722l-.001.003.412.282m-.551-1.007.552 1.007m0 0-.413-.282-.003.003-.006.01-.027.039-.097.141A469.795 469.795 0 0 1 24 24.561c-.31.439-.785.628-1.667.629-.562 0-1.861-.253-3.638-1.126-1.764-.866-3.973-2.33-6.356-4.713-2.382-2.382-3.846-4.591-4.713-6.355C6.754 11.218 6.5 9.919 6.5 9.356c0-.881.19-1.357.628-1.666a129.815 129.815 0 0 1 1.399-.965l.141-.096.039-.027.01-.007.002-.002h.001l-.282-.413.282.413.003-.002a.515.515 0 0 1 .722.141l2.53 3.825c.184.309.187.695.005 1.007l-.001.003-.013.023-.105.18-.839 1.438v.001a1.384 1.384 0 0 0-.18.943v.002c.061.334.245.568.248.571l.007.011c.677.924 1.57 2 2.714 3.143a27.398 27.398 0 0 0 3.135 2.708c.069.053.284.205.59.261l7.973 2.404Z"/></g></svg>