<svg width="32" height="32" viewBox="0 0 32 32" fill="none" xmlns="http://www.w3.org/2000/svg">
<g id="Group">
<g id="Group_2">
<rect id="Rectangle 23" width="32" height="32" rx="6" fill="url(#paint0_linear_852_537)"/>
<path id="Vector" d="M25.2335 21.8275L21.4001 19.2915C20.9322 19.0081 20.347 19.0031 19.8741 19.2774C19.8741 19.2774 19.8741 19.2774 18.23 20.2357C18.0097 20.3637 17.7978 20.3878 17.6266 20.3562C17.4088 20.3163 17.2592 20.1975 17.2492 20.1892C16.3457 19.5267 15.2901 18.6498 14.1647 17.5252C13.0401 16.4006 12.1632 15.345 11.5008 14.4407C11.4933 14.4299 11.3736 14.2802 11.3337 14.0633C11.3029 13.8921 11.3262 13.681 11.4542 13.4599C12.4126 11.8158 12.4126 11.8158 12.4126 11.8158C12.6877 11.3428 12.6819 10.7568 12.3984 10.2897L9.8625 6.45624C9.54832 5.98163 8.90581 5.85612 8.43786 6.18028C8.43786 6.18028 7.2368 7.00233 6.84033 7.28161C6.2053 7.72879 6.00083 8.40871 6 9.35627C5.99834 10.6895 7.14703 14.8662 11.9853 19.7046C16.8245 24.5438 21.0003 25.6917 22.3336 25.69C23.2811 25.6892 23.961 25.4839 24.4082 24.8497C24.6875 24.4532 25.5095 23.2521 25.5095 23.2521C25.8337 22.7842 25.709 22.1416 25.2335 21.8275Z" fill="white"/>
</g>
</g>
<defs>
<linearGradient id="paint0_linear_852_537" x1="16" y1="0" x2="16" y2="32" gradientUnits="userSpaceOnUse">
<stop stop-color="#62FF3A"/>
<stop offset="1" stop-color="#18EA18" stop-opacity="0.7"/>
</linearGradient>
</defs>
</svg>
