<svg xmlns="http://www.w3.org/2000/svg" width="21" height="21" fill="none"><path fill="#29B6F6" d="M10.5 0C4.701 0 0 4.701 0 10.5S4.701 21 10.5 21 21 16.299 21 10.5 16.299 0 10.5 0Z"/><path fill="#fff" d="m15.724 5.775-1.966 10.041s-.085.459-.654.459c-.302 0-.458-.144-.458-.144l-4.26-3.535-2.085-1.05-2.674-.712s-.477-.137-.477-.53c0-.329.49-.485.49-.485l11.191-4.446s.342-.124.591-.123c.154 0 .328.066.328.263 0 .13-.026.262-.026.262Z"/><path fill="#B0BEC5" d="m9.975 13.916-1.799 1.77s-.078.061-.183.064a.258.258 0 0 1-.115-.023l.507-3.131 1.59 1.32Z"/><path fill="#CFD8DC" d="M13.596 7.453a.263.263 0 0 0-.368-.048L6.3 11.55s1.106 3.094 1.274 3.63c.17.535.305.548.305.548l.506-3.132 5.162-4.775a.262.262 0 0 0 .05-.368Z"/></svg>