<svg xmlns="http://www.w3.org/2000/svg" width="32" height="32" fill="none"><g clip-path="url(#a)"><path stroke="#fff" d="M6 31.5A5.5 5.5 0 0 1 .5 26V6A5.5 5.5 0 0 1 6 .5h20A5.5 5.5 0 0 1 31.5 6v20a5.5 5.5 0 0 1-5.5 5.5H6Z"/><path stroke="#fff" d="M6.5 16.5c0-5.523 4.477-10 10-10s10 4.477 10 10-4.477 10-10 10-10-4.477-10-10Z"/><path fill="#fff" d="m21.724 11.775-1.966 10.041s-.085.459-.654.459c-.302 0-.459-.144-.459-.144l-4.26-3.535-2.084-1.05-2.674-.712s-.477-.137-.477-.53c0-.329.49-.485.49-.485l11.191-4.446s.342-.123.591-.123c.154 0 .328.066.328.262 0 .132-.026.263-.026.263Z"/><path fill="#B0BEC5" d="m15.975 19.916-1.799 1.77s-.078.061-.183.064a.258.258 0 0 1-.115-.023l.506-3.131 1.59 1.32Z"/><path fill="#CFD8DC" d="M19.596 13.453a.263.263 0 0 0-.368-.048L12.3 17.55s1.106 3.093 1.274 3.628c.17.536.305.549.305.549l.506-3.132 5.162-4.775a.262.262 0 0 0 .05-.368Z"/></g><defs><clipPath id="a"><path fill="#fff" d="M0 0h32v32H0z"/></clipPath></defs></svg>