<svg xmlns="http://www.w3.org/2000/svg" width="32" height="32" fill="none"><path stroke="#fff" d="M4.36.5h23.28a3.86 3.86 0 0 1 3.86 3.86v23.28a3.86 3.86 0 0 1-3.86 3.86H4.36A3.86 3.86 0 0 1 .5 27.64V4.36A3.86 3.86 0 0 1 4.36.5Z"/><path fill="#fff" fill-rule="evenodd" d="M20.629 12.984c1.4 1 3.117 1.59 4.97 1.59v-3.566c-.35 0-.7-.036-1.043-.11v2.807a8.53 8.53 0 0 1-4.97-1.59v7.275c0 3.64-2.953 6.59-6.593 6.59a6.565 6.565 0 0 1-3.67-1.115 6.576 6.576 0 0 0 4.713 1.982c3.64 0 6.593-2.95 6.593-6.59v-7.273Zm1.288-3.596a4.973 4.973 0 0 1-1.288-2.91V6.02h-.99a4.992 4.992 0 0 0 2.278 3.368ZM11.625 22.073a3.015 3.015 0 0 1 3.315-4.698v-3.644a6.715 6.715 0 0 0-1.043-.06v2.836a3.015 3.015 0 0 0-2.272 5.566Z" clip-rule="evenodd"/><path fill="#fff" fill-rule="evenodd" d="M19.586 12.116c1.4 1 3.117 1.589 4.97 1.589v-2.806a4.994 4.994 0 0 1-2.639-1.512 4.99 4.99 0 0 1-2.276-3.367h-2.598v14.238a3.015 3.015 0 0 1-5.417 1.814 3.013 3.013 0 0 1 1.357-5.707c.32 0 .627.05.916.142V13.67a6.59 6.59 0 0 0-4.575 11.195 6.564 6.564 0 0 0 3.67 1.114c3.642 0 6.593-2.95 6.593-6.589l-.001-7.275Z" clip-rule="evenodd"/></svg>