<svg xmlns="http://www.w3.org/2000/svg" width="288" height="288"><svg xmlns="http://www.w3.org/2000/svg" width="288" height="288" fill="none" viewBox="0 0 29 29"><circle cx="14.5" cy="14.5" r="14" stroke="#82efee" class="colorStrokefff svgStroke"/><path stroke="#82efee" d="M22.5 14.5c0 3.931-.935 7.465-2.42 10-1.494 2.547-3.483 4-5.58 4s-4.086-1.453-5.58-4c-1.485-2.535-2.42-6.069-2.42-10s.935-7.465 2.42-10c1.494-2.547 3.483-4 5.58-4s4.086 1.453 5.58 4c1.485 2.535 2.42 6.069 2.42 10Z" class="colorStrokefff svgStroke"/><path stroke="#82efee" stroke-linecap="round" d="M14.5.5v28" class="colorStrokefff svgStroke"/><path stroke="#82efee" d="M28 14.5H1" class="colorStrokefff svgStroke"/><path stroke="#82efee" stroke-linecap="round" d="M26.5 21.5h-24M26.5 7.5h-24" class="colorStrokefff svgStroke"/></svg></svg>